<?xml version="1.0" standalone="no"?>
<!DOCTYPE svg PUBLIC "-//W3C//DTD SVG 1.1//EN" "http://www.w3.org/Graphics/SVG/1.1/DTD/svg11.dtd" >
<svg xmlns="http://www.w3.org/2000/svg">
<metadata></metadata>
<defs>
<font id="euphorigenicregular" horiz-adv-x="788" >
<font-face units-per-em="2048" ascent="1573" descent="-475" />
<missing-glyph horiz-adv-x="497" />
<glyph unicode="&#x28;C&#x29;" horiz-adv-x="1536" d="M61 754q0 160 55.5 302t150.5 247.5t224.5 167t274.5 61.5q147 0 276 -61.5t225.5 -167t152 -248t55.5 -301.5q0 -160 -55.5 -301.5t-152 -247t-225.5 -165.5t-276 -60q-145 0 -274.5 60t-224.5 165.5t-150.5 247t-55.5 301.5zM190 754q0 -135 45.5 -253t123 -205 t182 -138.5t225.5 -51.5q119 0 225.5 51.5t184 138.5t124 204.5t46.5 253.5q0 135 -46.5 252.5t-124 205.5t-184 139.5t-225.5 51.5q-121 0 -225.5 -51.5t-182 -139.5t-123 -205.5t-45.5 -252.5zM528 762q0 100 2 166.5t8.5 111.5t16.5 74t27 55q29 47 79 76t121 29 q82 0 129 -42.5t47 -101.5q0 -31 -19 -55t-48 -24q-59 0 -60 69q0 31 7.5 47.5t33.5 26.5q-27 33 -88 33q-68 0 -102 -47q-10 -12 -18.5 -32t-13.5 -60.5t-7 -110.5t-2 -182q0 -131 2 -208t6 -118t9.5 -58.5t13.5 -27.5q23 -33 47 -45t65 -12q100 0 125 88l35 -17 q-20 -66 -61 -93.5t-107 -27.5q-121 0 -186 84q-16 20 -28.5 47t-19.5 70t-10.5 111.5t-3.5 173.5z" />
<glyph unicode="&#x28;R&#x29;" horiz-adv-x="1536" d="M61 754q0 160 55.5 302t150.5 247.5t224.5 167t274.5 61.5q147 0 276 -61.5t225.5 -167t152 -248t55.5 -301.5q0 -160 -55.5 -301.5t-152 -247t-225.5 -165.5t-276 -60q-145 0 -274.5 60t-224.5 165.5t-150.5 247t-55.5 301.5zM190 754q0 -135 45.5 -253t123 -205 t182 -138.5t225.5 -51.5q119 0 225.5 51.5t184 138.5t124 204.5t46.5 253.5q0 135 -46.5 252.5t-124 205.5t-184 139.5t-225.5 51.5q-121 0 -225.5 -51.5t-182 -139.5t-123 -205.5t-45.5 -252.5zM522 289v47h10q18 0 26.5 6t12.5 27q2 18 3 37.5t2.5 67.5t1.5 136v246 q0 115 -1.5 180.5t-3.5 99t-5 46t-7 22.5q-8 10 -24 10h-15v50h244q39 0 71.5 -10.5t57.5 -36t39 -69.5t14 -112q0 -104 -40 -151t-122 -51q25 -4 62 -35t72 -115q16 -41 33.5 -100.5t38 -114.5t46 -94t60.5 -39h37v-47h-68q-33 0 -55.5 6t-41 20.5t-33.5 40t-32 66.5 q-27 59 -46 125.5t-44 124.5q-35 78 -66.5 111.5t-76.5 37.5q0 -133 1 -216t2 -131t2 -70.5t3 -34.5q4 -23 11 -28t24 -5h12v-47h-205zM672 877h65q47 0 75 30.5t28 134.5q0 61 -7.5 95t-20.5 51.5t-32.5 21.5t-42.5 4h-24q-18 0 -27 -24q-4 -12 -7 -27.5t-5 -48.5t-2 -88 v-149z" />
<glyph horiz-adv-x="2048" />
<glyph horiz-adv-x="2048" />
<glyph unicode="&#xd;" horiz-adv-x="497" />
<glyph horiz-adv-x="497" />
<glyph unicode=" "  horiz-adv-x="497" />
<glyph unicode="&#x09;" horiz-adv-x="497" />
<glyph unicode="&#xa0;" horiz-adv-x="497" />
<glyph unicode="!" horiz-adv-x="450" d="M82 1372q0 63 42 103.5t103 40.5q66 0 104 -40t38 -102q0 -10 -1 -20.5t-3 -20.5q-16 -94 -33 -191.5t-31 -188.5t-24.5 -173t-12.5 -143q-2 -45 -3 -92t-1 -107h-61q0 100 -3 176t-11.5 145.5t-19.5 141.5t-28 166q-18 104 -29.5 162.5t-17.5 88.5t-7 39t-1 15zM100 139 q0 68 37 112t96 44q61 0 98.5 -44t37.5 -112q0 -70 -37.5 -112.5t-98.5 -42.5q-59 0 -96 43t-37 112z" />
<glyph unicode="&#x22;" horiz-adv-x="798" d="M86 1452q0 72 41 108.5t94 36.5q55 0 96 -36.5t41 -108.5q0 -35 -13 -65.5t-28.5 -66.5t-30 -80t-14.5 -103h-102q0 59 -13.5 103t-28.5 80t-28.5 66.5t-13.5 65.5zM438 1452q0 72 41 108.5t94 36.5q55 0 96 -36.5t41 -108.5q0 -35 -13 -65.5t-28.5 -66.5t-30 -80 t-14.5 -103h-102q0 59 -13.5 103t-28.5 80t-28.5 66.5t-13.5 65.5z" />
<glyph unicode="#" horiz-adv-x="1046" d="M47 442v109h219l66 416h-207v108h225l68 434h106l-69 -434h243l70 434h104l-69 -434h194v-108h-213l-67 -416h201v-109h-220l-69 -442h-105l70 442h-240l-71 -442h-105l72 442h-203zM371 551h243l66 416h-244z" />
<glyph unicode="$" horiz-adv-x="780" d="M29 485l75 23q25 -84 86.5 -136.5t163.5 -52.5v340q-70 29 -124 56.5t-92 62.5t-57.5 81t-19.5 112q0 111 77 186.5t214 89.5q0 66 -12 262h104q-6 -43 -9 -107.5t-3 -158.5q68 -12 143 -72v97h93v-297h-93q0 150 -145 180v-303q47 -20 88 -32.5t76 -29.5 q70 -33 108.5 -89t38.5 -154q0 -131 -81.5 -214t-227.5 -102q4 -100 6 -157.5t2 -69.5h-96v221q-123 0 -202 72t-113 192zM268 1018q0 -45 21.5 -76t62.5 -55v254q-37 -12 -60.5 -43t-23.5 -80zM430 480q0 -68 2 -136q37 23 54.5 52.5t17.5 88.5q0 84 -74 133v-138z" />
<glyph unicode="%" horiz-adv-x="1382" d="M53 1100q0 70 3 148.5t26.5 145t76 110.5t148.5 44q92 0 142.5 -42t74 -107.5t27.5 -144t4 -154.5q0 -121 -15.5 -200t-46 -125t-77.5 -65.5t-113 -19.5q-63 0 -110.5 21.5t-78 69.5t-46 126t-15.5 193zM127 0q57 80 140 204t178.5 268t193.5 298t184 294t154 257 t102 188h189q-61 -80 -146.5 -203.5t-179.5 -268t-190.5 -299t-181.5 -295t-152.5 -257t-102.5 -186.5h-188zM194 1120q0 -84 2.5 -137t4.5 -86t5 -49.5t7 -26.5q12 -31 37.5 -43t54.5 -12t52.5 13.5t35.5 37.5q6 10 10 27.5t7.5 49.5t5.5 84t2 134q0 84 -1 137.5t-4 85 t-7.5 49t-10.5 29.5q-29 63 -88 64q-72 0 -94 -64q-4 -12 -7 -27.5t-6 -47t-4.5 -84t-1.5 -134.5zM829 375q0 70 3 148.5t26.5 145t76 110.5t148.5 44q92 0 142.5 -42t74 -107.5t27.5 -144t4 -154.5q0 -121 -15.5 -200t-46 -125t-77.5 -65.5t-113 -19.5q-63 0 -110.5 21.5 t-78 69.5t-46 126t-15.5 193zM970 395q0 -84 2.5 -137t4.5 -86t5 -49.5t7 -26.5q12 -31 37.5 -43t54.5 -12t52.5 13.5t35.5 37.5q6 10 10 27.5t7.5 49.5t5.5 84t2 134q0 84 -1 137.5t-4 85t-7.5 49t-10.5 29.5q-29 63 -88 64q-72 0 -94 -64q-4 -12 -7 -27.5t-6 -47t-4.5 -84 t-1.5 -134.5z" />
<glyph unicode="&#x26;" horiz-adv-x="923" d="M33 422q0 154 53 268.5t145 190.5q-82 209 -81 336q0 139 63 227t184 88q59 0 102.5 -25.5t72 -65.5t43 -87t14.5 -92q0 -59 -8.5 -104.5t-32 -92.5t-64.5 -104.5t-104 -139.5q55 -127 121.5 -247.5t134 -222t129 -174.5t106.5 -99l-16 -72q-41 18 -96.5 61.5 t-122.5 110.5q-23 -43 -45.5 -80t-52 -62.5t-72.5 -40.5t-109 -15q-74 0 -139 31.5t-115.5 90t-80 140.5t-29.5 180zM244 403q0 -68 13 -128t37.5 -105t62.5 -71.5t87 -26.5q59 0 111.5 42t81.5 105q-88 92 -168 209t-152 260q-31 -53 -52 -122.5t-21 -162.5zM281 1309 q0 -35 4 -70t13 -75t23.5 -86t36.5 -103q133 109 134 287q0 35 -8.5 68.5t-24 60t-37.5 43t-49 16.5q-41 0 -66.5 -37t-25.5 -104z" />
<glyph unicode="'" horiz-adv-x="446" d="M86 1452q0 72 41 108.5t94 36.5q55 0 96 -36.5t41 -108.5q0 -35 -13 -65.5t-28.5 -66.5t-30 -80t-14.5 -103h-102q0 59 -13.5 103t-28.5 80t-28.5 66.5t-13.5 65.5z" />
<glyph unicode="(" horiz-adv-x="675" d="M219 164v878q0 184 30 307.5t84 197t131 104t169 30.5v-104q-59 -12 -104.5 -41t-77 -83t-48 -138t-16.5 -207v-1010q0 -123 16.5 -207t48 -138t76.5 -82.5t105 -41.5v-104q-92 0 -169 30.5t-131 104.5t-84 197t-30 307z" />
<glyph unicode=")" horiz-adv-x="675" d="M43 -371q57 12 103.5 41t77 83t47 138t16.5 207v1010q0 123 -16.5 207t-47 138t-77 83t-103.5 41v104q92 0 168 -30.5t131 -104t85 -196.5t30 -308v-878q0 -184 -30 -307t-85 -197t-131 -104.5t-168 -30.5v104z" />
<glyph unicode="*" horiz-adv-x="817" d="M45 930q0 37 32 64.5t81 49t106.5 39t106.5 33.5q-59 14 -117.5 32.5t-105 40t-75 48.5t-28.5 61q0 98 100 99q49 0 105.5 -70t136.5 -170q-4 14 -15.5 49t-24.5 77t-23.5 83t-10.5 68q0 98 101 98q106 0 106 -98q0 -25 -12 -64t-26.5 -80t-28 -75.5t-15.5 -49.5 q35 45 66 87t59.5 74t56 51.5t56.5 19.5q98 -1 98 -99q0 -35 -29.5 -61.5t-78 -48t-105.5 -40t-112 -32.5q43 -18 99 -35.5t105 -39t83 -48t34 -63.5q0 -98 -98 -99q-29 0 -52.5 16.5t-49 46.5t-57.5 72t-75 91q2 -4 14.5 -37t26 -74t23.5 -81t10 -60q0 -100 -104 -100 q-100 0 -101 100q0 20 11.5 60t24.5 82t25.5 75t16.5 43q-80 -102 -133 -168t-105 -66q-102 0 -102 99z" />
<glyph unicode="+" horiz-adv-x="872" d="M33 680v119h342v342h119v-342h346v-119h-346v-346h-119v346h-342z" />
<glyph unicode="," horiz-adv-x="442" d="M86 150q0 59 37 102t96 43t97 -44t38 -120q0 -117 -57 -197.5t-141 -99.5l-15 43q55 25 80 56.5t33 66.5q-16 -10 -41 -10q-57 0 -92 41t-35 119z" />
<glyph unicode="-" horiz-adv-x="528" d="M37 539v168q70 -8 131 -13.5t121 -5.5q98 0 200 19v-168q-104 12 -210 12q-123 0 -242 -12z" />
<glyph unicode="." horiz-adv-x="442" d="M86 139q0 68 37 112t96 44q61 0 98 -44t37 -112q0 -70 -37 -112.5t-98 -42.5q-59 0 -96 43t-37 112z" />
<glyph unicode="/" horiz-adv-x="575" d="M14 -377q31 127 68 294t76 353.5t77.5 380t71.5 372.5t58.5 332.5t40.5 258.5h155q-135 -584 -232.5 -1079.5t-158.5 -911.5h-156z" />
<glyph unicode="0" horiz-adv-x="993" d="M51 717q0 147 6 253.5t19.5 183.5t33 129t46.5 93q106 156 344 156q117 0 200.5 -42t137.5 -122q27 -41 46 -94t32.5 -129t19.5 -180.5t6 -247.5q0 -129 -8 -227.5t-24.5 -173t-42 -129t-62.5 -93.5q-102 -115 -313 -114q-137 0 -226.5 55t-142.5 166q-18 39 -31.5 87 t-23 109.5t-13.5 139.5t-4 180zM264 754q0 -158 3 -258.5t8.5 -161t13.5 -92t18 -54.5q29 -66 76 -92t111 -26q66 0 112.5 24.5t75.5 79.5q12 23 20.5 55.5t14.5 94t9 161t3 256.5q0 162 -3 263.5t-7 163t-12.5 93t-16.5 54.5q-29 66 -77 95.5t-115 29.5q-70 0 -119 -30 t-78 -95q-10 -23 -17.5 -54.5t-11.5 -92t-6 -159.5t-2 -255z" />
<glyph unicode="1" horiz-adv-x="473" d="M39 0v94h33q53 0 59 62q2 12 5 39.5t5 92t3 176t1 296.5q0 168 -4 298t-10 189h-92v92q35 2 68.5 16.5t60.5 37t44 52.5t19 64h97q-2 -94 -3 -284.5t-1 -464.5q0 -174 1 -282.5t4 -174t7 -98.5t8 -55q8 -31 22.5 -43.5t45.5 -12.5h22v-94h-395z" />
<glyph unicode="2" horiz-adv-x="768" d="M57 2v166q0 135 20.5 224t59.5 153.5t95.5 113t127.5 101.5q94 72 135.5 170t41.5 235q0 131 -49.5 204t-137.5 73q-59 0 -86.5 -17.5t-34.5 -42.5q92 -35 93 -141q0 -57 -37 -100t-95 -43q-57 0 -95 41t-38 96q0 137 84 218t219 81q166 0 260.5 -96.5t94.5 -288.5 q0 -78 -14.5 -141.5t-46 -118.5t-82 -104.5t-123.5 -96.5q-53 -35 -103.5 -77t-77.5 -99q-12 -31 -20 -53.5t-12.5 -54t-5.5 -81t-1 -128.5v-82h342q59 0 60 112h71v-223h-645z" />
<glyph unicode="3" horiz-adv-x="778" d="M51 279q0 57 38 98t93 41q59 0 96 -43t37 -103q0 -111 -92 -141q6 -25 34 -43t79 -18t84 16t57 45q8 12 16.5 28.5t14.5 49.5t10 86t4 137q0 78 -3 127t-7 79t-11 46t-16 27q-20 31 -52 47t-64 16h-93v72h93q37 0 64.5 16.5t45.5 63.5q8 23 15.5 68.5t7.5 160.5 q0 109 -12.5 159t-28.5 77q-20 31 -49 41t-70 10q-47 0 -73.5 -16.5t-37.5 -43.5q92 -33 93 -141q0 -57 -37 -100t-94 -43q-59 0 -94.5 42t-35.5 105q0 123 80 205t232 82q150 0 234.5 -97.5t84.5 -273.5q0 -154 -39 -238.5t-129 -117.5q45 -20 82 -51t63.5 -77t41 -109.5 t14.5 -149.5q0 -92 -23.5 -172t-70.5 -139.5t-117 -93t-162 -33.5q-137 0 -220 81.5t-83 217.5z" />
<glyph unicode="4" d="M8 672q57 186 93 351t57 314h157q-16 -57 -30.5 -109t-28.5 -115.5t-30.5 -146.5t-37.5 -202h250q0 174 -1 295t-2 206t-4 141t-9 103h291v-90h-27q-51 0 -63 -65q-4 -16 -6.5 -46t-5.5 -93.5t-4 -171t-1 -279.5h129v-92h-129q-2 -115 -4 -197t-2 -147q0 -72 4 -117 t13.5 -71.5t27 -37t45.5 -10.5q16 0 23 2v-94h-416v94h61q47 0 62 70q6 27 10 55.5t5 80.5t2 139t1 233h-430z" />
<glyph unicode="5" horiz-adv-x="792" d="M47 201l82 57q35 -104 92.5 -146t132.5 -42q53 0 80 15t43 34q12 12 21.5 30.5t15.5 56.5t10 100.5t4 164.5q0 84 -3 139.5t-9 92t-16.5 58t-22.5 36.5q-47 49 -123 49q-72 0 -142.5 -20.5t-129.5 -61.5q4 39 7 86t6 110.5t5 146.5t2 196q0 96 -6 206h586v-243h-100 q-2 84 -16.5 117.5t-55.5 33.5h-213q-10 -59 -13 -144t-3 -171v-103.5t4 -93.5q29 8 61.5 11.5t63.5 3.5q80 0 141 -21.5t103 -75t64.5 -145t22.5 -232.5q0 -229 -99 -347.5t-273 -118.5q-102 0 -190.5 49t-131.5 172z" />
<glyph unicode="6" horiz-adv-x="829" d="M55 532q0 186 43 354.5t119 301.5t179.5 223t221.5 121l29 -74q-84 -35 -153.5 -91t-120.5 -141t-82 -202t-35 -268q41 63 94 87.5t119 24.5t121 -29.5t96 -85t64.5 -137t23.5 -186.5q0 -102 -26.5 -185t-72.5 -141.5t-109.5 -91t-137.5 -32.5q-90 0 -159.5 41.5 t-117 116.5t-72 176.5t-24.5 217.5zM252 596q0 -117 11 -214t33.5 -167t55.5 -107.5t76 -37.5q33 0 56.5 19.5t39.5 47.5q6 10 14.5 26.5t14.5 48.5t11 86t5 142q0 74 -4 122t-11 79t-15.5 49.5t-14.5 30.5q-38 57 -108 57q-49 0 -89 -31.5t-75 -84.5v-66z" />
<glyph unicode="7" horiz-adv-x="679" d="M16 1229v280h668q-63 -127 -166 -376q-94 -227 -140 -477t-46 -515q0 -86 -26.5 -123.5t-80.5 -37.5q-51 0 -83.5 32.5t-32.5 106.5q0 86 21.5 198.5t64.5 243.5q43 129 125.5 326.5t199.5 462.5h-356q-57 0 -58 -121h-90z" />
<glyph unicode="8" horiz-adv-x="804" d="M43 455q0 145 45 235t131 146q-78 51 -104.5 133t-26.5 209q0 180 84 267t231 87t229.5 -87t82.5 -267q0 -127 -25.5 -209t-105.5 -133q86 -57 132 -147.5t46 -233.5q0 -109 -20.5 -197t-63.5 -149.5t-110.5 -95t-164.5 -33.5q-197 0 -278.5 114.5t-81.5 360.5zM254 424 q0 -86 3 -140.5t9 -86t14.5 -48t16.5 -26.5q39 -55 106 -55q29 0 53.5 12t41.5 33q10 12 19 28.5t15.5 50t10.5 89t4 143.5q0 94 -3 152.5t-8.5 92t-12.5 49t-15 27.5q-39 56 -107 56q-70 0 -104 -51q-10 -10 -17.5 -26.5t-13.5 -51.5t-9 -93.5t-3 -154.5zM285 1182 q0 -74 2 -120t6 -75t10 -44t12 -28q31 -47 91 -47q51 0 81 43q8 10 13.5 25.5t9.5 45.5t6 77t2 123q0 57 -3 97t-8 66.5t-13.5 43t-16.5 26.5q-29 31 -74 31q-53 0 -81 -41q-16 -23 -26.5 -69t-10.5 -154z" />
<glyph unicode="9" horiz-adv-x="808" d="M49 1069q0 100 25.5 185t72 146.5t109.5 96.5t137 35q90 0 160 -42t117 -116t71.5 -174t24.5 -217q0 -186 -33 -349t-96.5 -293t-155.5 -221t-211 -134l-28 71q78 49 137 104.5t99 132.5t62.5 184.5t26.5 258.5q-33 -53 -91.5 -79.5t-121.5 -26.5q-133 0 -219 113.5 t-86 324.5zM254 1059q0 -74 4 -122t10 -79t14.5 -48t16.5 -30q33 -57 109 -57q96 0 163 106v74q0 117 -11 216.5t-33.5 170t-56.5 110.5t-77 40q-61 0 -94 -60q-6 -12 -14.5 -30.5t-15.5 -54t-11 -92t-4 -144.5z" />
<glyph unicode=":" horiz-adv-x="495" d="M113 139q0 68 36.5 112t98.5 44q59 0 96 -44t37 -112q0 -70 -37 -112.5t-96 -42.5q-61 0 -98 43t-37 112zM113 713q0 70 36.5 112.5t98.5 42.5q59 0 96 -43t37 -112q0 -68 -37 -112t-96 -44q-61 0 -98 44t-37 112z" />
<glyph unicode=";" horiz-adv-x="495" d="M113 150q0 59 37.5 102t97.5 43q59 0 96 -44t37 -120q0 -117 -56.5 -197.5t-142.5 -99.5l-14 43q57 25 80.5 56.5t32.5 66.5q-16 -10 -39 -10q-59 0 -94 41t-35 119zM113 713q0 70 36.5 112.5t98.5 42.5q59 0 96 -43t37 -112q0 -68 -37 -112t-96 -44q-61 0 -98 44 t-37 112z" />
<glyph unicode="&#x3c;" horiz-adv-x="860" d="M33 680v119l807 288v-124l-650 -224l650 -223v-127z" />
<glyph unicode="=" horiz-adv-x="872" d="M33 403v119h807v-119h-807zM33 956v119h807v-119h-807z" />
<glyph unicode="&#x3e;" horiz-adv-x="860" d="M33 389v127l649 223l-649 224v124l807 -288v-119z" />
<glyph unicode="?" horiz-adv-x="716" d="M33 1247q0 129 83 208t218 79q166 0 259 -81.5t93 -276.5q0 -90 -31.5 -158t-80 -121t-103.5 -95t-103.5 -81t-80 -79t-31.5 -87q0 -57 34 -87t77 -34v-47q-39 0 -73 14.5t-59.5 39t-40 58t-14.5 72.5q0 47 14.5 85t36.5 69q41 51 95.5 94t99.5 105q33 45 52.5 104 t19.5 143q0 152 -48.5 212.5t-132.5 60.5q-35 0 -71.5 -13.5t-40.5 -48.5q94 -35 94 -141q0 -57 -38 -100t-97 -43q-55 0 -93 42t-38 107zM174 139q0 68 37 112t98 44q59 0 96 -44t37 -112q0 -70 -37 -112.5t-96 -42.5q-61 0 -98 43t-37 112z" />
<glyph unicode="@" horiz-adv-x="1378" d="M53 469q0 203 53.5 357.5t143.5 257t207.5 154.5t247.5 52q625 0 624 -667q0 -70 -14.5 -150t-49 -147.5t-91 -111.5t-142.5 -44q-61 0 -101 34t-63 75q-23 -47 -69.5 -78t-118.5 -31q-49 0 -91 16.5t-74 52t-50.5 95t-18.5 145.5q0 129 54.5 214t171.5 85q43 0 82 -11 t67 -34l15 41h108v-418q0 -59 26.5 -88.5t69.5 -29.5q31 0 56.5 19t44 63.5t30 117t11.5 178.5q0 127 -22.5 232.5t-77 180.5t-145.5 116t-228 41q-109 0 -201 -46t-159.5 -136.5t-105.5 -223.5t-38 -307q0 -285 110.5 -467t360.5 -248l-8 -94q-313 63 -464 275.5 t-151 529.5zM621 473q0 -111 28.5 -157t81.5 -46q33 0 52.5 17.5t35.5 44.5v276q-31 66 -92 66q-53 0 -79.5 -41t-26.5 -160z" />
<glyph unicode="A" horiz-adv-x="1040" d="M31 -283h24q51 0 66 60q10 33 31.5 142.5t50 264t61.5 339t63.5 365.5t57.5 345t43 276h201q18 -162 47 -355t62.5 -394t70.5 -396.5t72 -361.5q18 -90 29.5 -141t18.5 -78t11 -36t8 -13q8 -10 17.5 -13.5t29.5 -3.5h21v-94h-432v94h24q74 0 74 37q0 29 -7 93.5 t-22 148.5h-397l-33 -205q-2 -12 -2 -20.5v-18.5q0 -23 17.5 -29t52.5 -6h26v-94h-286v94zM270 88h371l-166 1100q-4 -20 -19.5 -101t-37 -195t-46 -244t-46 -245.5t-37 -201.5t-19.5 -113z" />
<glyph unicode="B" horiz-adv-x="1062" d="M39 -283h20q18 0 32.5 7.5t24 34t15.5 82t9 151.5t4 241.5t1 352.5q0 236 -2 387t-6 240.5t-8 127t-6 48.5q-8 28 -60 28h-4h-20v92h473q172 0 261 -109.5t89 -326.5q0 -111 -38 -194.5t-97 -135.5q131 -25 211 -120q29 -35 48.5 -72t31.5 -86t17 -119t5 -170 q0 -125 -29.5 -227.5t-85 -174t-134 -111.5t-177.5 -40h-575v94zM326 674q4 -123 4 -241v-236v-318q0 -88 12 -125t66 -37h143q72 0 128 27t91 82q14 20 24.5 47t17.5 70t11 105.5t4 154.5t-5 154.5t-14 104.5t-23.5 70.5t-34.5 53.5q-72 88 -199 88h-225zM326 764h141 q43 0 77 18.5t56 51.5q27 33 39 86t12 147q0 59 -3 102t-9 74t-14.5 52.5t-20.5 39.5q-25 39 -63.5 60.5t-89.5 21.5h-41q-18 0 -31.5 -9t-23 -32.5t-14.5 -65.5t-7 -108q-4 -72 -5 -123t-2 -99t-1 -98.5v-117.5z" />
<glyph unicode="C" horiz-adv-x="915" d="M51 539q0 197 4 326.5t14.5 215.5t31 141.5t51.5 106.5q59 94 154 148.5t233 54.5q80 0 143 -21.5t108.5 -59.5t70 -88.5t24.5 -107.5q0 -59 -38 -108t-97 -49q-115 0 -115 137q0 59 14.5 91t65.5 54q-51 59 -170 60q-127 0 -201 -92q-20 -25 -34.5 -63t-24 -118 t-14.5 -215t-5 -352q0 -250 4 -398.5t11.5 -229.5t18.5 -114.5t26 -54.5q43 -59 91 -84.5t128 -25.5q98 0 157.5 43t83.5 127l66 -27q-37 -129 -117 -183t-207 -54q-117 0 -208 43t-152 120q-33 41 -55.5 91.5t-36 135.5t-19.5 216t-6 334z" />
<glyph unicode="D" horiz-adv-x="1089" d="M39 -283h20q18 0 32.5 7.5t24 35t15.5 85t9 156.5t4 248.5t1 364.5q0 213 -2 352.5t-5 226.5t-7 130t-8 66q-4 18 -19.5 23t-42.5 5h-22v92h618q80 0 150 -37.5t119 -111.5q29 -45 50 -104.5t35.5 -149.5t21.5 -219t7 -309q0 -184 -8 -314.5t-23.5 -222.5t-38 -153.5 t-50.5 -104.5q-55 -84 -132 -122t-174 -38h-575v94zM326 317.5q0 -141.5 1 -229.5t2 -138t5 -93q6 -80 22.5 -110t67.5 -30h127q61 0 112.5 25t88.5 84q18 27 31.5 69t23.5 118.5t15 202.5t5 323q0 193 -4 318.5t-12 206.5t-20.5 127t-26.5 79q-35 78 -87 112.5t-124 34.5 h-141q-29 0 -47.5 -14t-22.5 -49q-4 -27 -6 -65t-5 -110.5t-4 -191.5t-1 -305v-364.5z" />
<glyph unicode="E" horiz-adv-x="1001" d="M39 -283h27q35 0 52 13.5t21 62.5q4 94 5 218t1 278v354.5v251.5t-1 172t-2 115t-3 82.5t-4 74.5q-4 41 -17.5 59.5t-45.5 18.5h-33v92h676v-213h-86q0 121 -58 121h-145q-47 0 -62.5 -9t-21.5 -54q-4 -51 -8 -195.5t-6 -394.5h143q70 0 70 121h88v-336h-88 q0 125 -70 125h-145v-191q0 -279 3 -452.5t13 -243.5q4 -25 23.5 -34t60.5 -9h418q29 0 43 26.5t14 86.5h86v-234h-948v94z" />
<glyph unicode="F" horiz-adv-x="729" d="M39 -283h31q53 0 61 82q2 20 5 58.5t5 124.5t3 238.5t1 404.5q0 170 -1 289.5t-2 199.5t-2 127t-3 72.5t-5 37t-7 21.5q-10 25 -21.5 35t-44.5 10h-20v92h676v-213h-86q0 121 -58 121h-145q-47 0 -62.5 -9t-21.5 -54q-4 -51 -8 -217t-6 -416h143q70 0 70 119h88v-332h-88 q0 121 -70 121h-145v-189q0 -145 1 -252.5t3 -185.5t5 -132t7 -91q6 -35 23.5 -48.5t64.5 -13.5h39v-94h-430v94z" />
<glyph unicode="G" horiz-adv-x="1030" d="M51 516q0 215 8.5 359.5t23.5 240.5t38.5 154.5t54.5 101.5q57 76 140 118t194 42q90 0 158.5 -21.5t114.5 -59.5t68.5 -88t22.5 -108q0 -74 -31.5 -115.5t-92.5 -41.5q-66 0 -94.5 43t-28.5 98q0 59 19.5 92t60.5 49q-51 59 -170 60q-74 0 -127.5 -30t-87.5 -83 q-16 -25 -28.5 -62.5t-20 -122.5t-11.5 -232.5t-4 -393.5q0 -209 2 -334t7 -196.5t13.5 -103.5t18.5 -54q29 -61 77 -98t113 -37q51 0 92.5 38t70 102.5t44 149.5t15.5 181q0 106 -3 175t-14.5 107.5t-32 53t-55.5 14.5v90h398v-90h-60q-2 0 -10 -12.5t-17.5 -64.5 t-16.5 -159.5t-7 -297.5q0 -53 3 -101.5t12.5 -85.5t25.5 -58.5t43 -21.5h13t14 2v-92q-10 -4 -26.5 -6t-37.5 -2q-49 0 -83 9t-58.5 29.5t-42 50.5t-33.5 71q-18 -76 -89 -126t-179 -50q-104 0 -181 48t-129 134q-23 39 -40 89t-29.5 132t-18.5 206t-6 308z" />
<glyph unicode="H" horiz-adv-x="1062" d="M39 -283h33q29 0 39 7.5t16 29.5q2 8 4 59.5t4 129t3 174t2 197t1 193.5v167q0 98 -1 215t-2 221t-4 180t-7 88q-6 23 -16.5 31t-38.5 8h-33v92h399v-92h-43q-27 0 -37 -8t-18 -31q-4 -12 -6 -73.5t-4 -149.5t-2 -191.5v-199.5h407q0 96 -1 199.5t-2 191.5t-4 149.5 t-5 73.5q-8 23 -18.5 31t-36.5 8h-43v92h399v-92h-33q-29 0 -39 -8t-16 -31q-4 -12 -7 -88t-5 -180t-2 -221v-215v-166t1 -194.5t2 -197t3 -174t4 -129t4 -59.5q6 -23 16.5 -30t38.5 -7h33v-94h-399v94h43q27 0 37 7.5t18 29.5q2 8 4 59.5t3 129t2 174t2 197t1 193.5v167 h-407v-166t1 -194.5t2 -197t2 -174t3 -129t4 -59.5q8 -23 18.5 -30t36.5 -7h43v-94h-399v94z" />
<glyph unicode="I" horiz-adv-x="468" d="M39 -283h33q29 0 39 7.5t16 29.5q2 8 4 59.5t4 129t3 174t2 197t1 193.5v167q0 98 -1 215t-2 221t-4 180t-7 88q-6 23 -16.5 31t-38.5 8h-33v92h391v-92h-35q-27 0 -37 -8t-18 -31q-4 -12 -6 -88t-4 -180t-2 -221v-215v-166t1 -194.5t2 -197t2 -174t3 -129t4 -59.5 q8 -23 18.5 -30t36.5 -7h35v-94h-391v94z" />
<glyph unicode="J" horiz-adv-x="714" d="M10 -104q0 57 37 100t94 43t95 -45t38 -105q0 -53 -20.5 -90t-73.5 -49q4 -12 11.5 -21.5t17.5 -15.5q28 -22 81 -22h5q94 0 139 92q6 12 11.5 28.5t9.5 49.5t6 87t4 143t3 217t1 308v84.5t-2 134t-3 158.5t-3 157t-5 128t-5 74q-4 43 -19.5 54t-50.5 11h-27v92h324 q-8 -47 -15.5 -138t-11.5 -259t-7 -429t-3 -644q0 -205 -88 -322.5t-242 -117.5q-137 0 -219 81.5t-82 215.5z" />
<glyph unicode="K" horiz-adv-x="1230" d="M39 -283h33q29 0 39 7.5t16 29.5q2 8 4 59.5t4 129t3 174t2 197t1 193.5v167q0 98 -1 215t-2 221t-4 180t-7 88q-6 23 -16.5 31t-38.5 8h-33v92h391v-92h-35q-27 0 -37 -8t-18 -31q-4 -12 -6 -80.5t-4 -166t-2 -208v-208.5q63 2 99 55t58 135q18 59 30.5 125t26 129.5 t31 122.5t45.5 107q31 55 75 87.5t120 32.5h133v-92h-88q-84 0 -121 -147q-29 -104 -45 -192.5t-51 -180.5q-25 -66 -64.5 -120t-95.5 -77q53 -12 99.5 -32.5t86.5 -56.5t74.5 -90t65.5 -134q27 -68 50.5 -141.5t48 -148t51 -148.5t61.5 -139q29 -51 57.5 -72t75.5 -21h74 v-94h-135q-59 0 -104.5 11.5t-81.5 40t-65.5 77.5t-60.5 127q-49 121 -87 248t-87 238q-33 76 -62.5 128t-62.5 86.5t-69.5 52t-81.5 23.5v-167t1 -190t2 -191.5t2 -170t3 -125t4 -57.5q8 -23 18.5 -30t36.5 -7h35v-94h-391v94z" />
<glyph unicode="L" horiz-adv-x="1011" d="M39 -283h31q23 0 35 7.5t18 27t8 55t6 91.5q2 35 3 90t2 150t1 239.5v353.5q0 162 -1 266.5t-2 171t-4 107.5t-7 78t-17.5 50t-43.5 13h-29v92h424v-92h-55q-53 0 -66 -63q-2 -16 -5 -49t-5 -105t-4 -195.5t-2 -322.5q0 -221 2 -414.5t6 -369.5q2 -80 18.5 -117t57.5 -37 h432q29 0 43 26.5t14 86.5h88v-234h-948v94z" />
<glyph unicode="M" horiz-adv-x="1210" d="M39 -281h18q57 0 68 19q4 10 7 26.5t7 67.5q2 47 3 99.5t3 145.5t3.5 244.5t1.5 399.5q0 190 -2.5 310t-5.5 190.5t-8 104.5t-11 50q-10 20 -21.5 30.5t-46.5 10.5h-16v92h321q6 -63 20.5 -165.5t33 -230.5t41 -273.5t48 -296t51.5 -300t50 -282.5q31 127 63.5 269.5 t67.5 323.5t76 413.5t90 541.5h268v-92h-18q-25 0 -41 -10t-29 -45q-8 -31 -13 -66.5t-8 -106.5t-4 -190.5t-1 -316.5v-297t2 -219t3 -154.5t3 -106.5t4 -74t6 -54q4 -43 22.5 -51.5t51.5 -8.5h22v-94h-389v94h19q41 0 56 11.5t17 48.5q4 88 7.5 172t5.5 189.5t3 244.5 t1 340v107.5t-2 113.5q-154 -772 -246 -1321h-164q-8 49 -25.5 149.5t-40 226.5t-49 266.5t-51 270.5t-46 237.5t-34.5 168.5q-2 -63 -3 -132t-1 -130q0 -35 1 -108.5t2 -165t3.5 -191.5t4.5 -189t4 -157t4 -94q2 -39 18.5 -48.5t52.5 -9.5h25v-94h-303v96z" />
<glyph unicode="N" horiz-adv-x="1003" d="M39 -283h20q16 0 27.5 4.5t24.5 24.5q6 10 12 23.5t9 45t5 87t4 150.5t2 236.5v344.5q0 240 -1 382t-4 221t-6 108.5t-9 44.5q-6 16 -14.5 22t-30.5 6h-39v92h311q100 -377 211 -740t225 -697q4 180 6.5 340.5t2.5 310.5q0 221 -2 350t-5.5 196.5t-8.5 91t-11 34.5 q-8 16 -16.5 19t-20.5 3h-43v92h305v-92h-18q-47 0 -64 -22q-6 -8 -10 -19.5t-7 -37t-5 -70.5t-3 -120t-1 -187.5v-270.5q0 -276 1 -459.5t3 -301t5 -187.5t7 -119h-213q-18 74 -50 195t-71 266t-84 303t-89 305.5t-85 273.5t-71 205q0 -20 -1 -72t-2.5 -154.5t-1.5 -262.5 v-393q0 -176 1.5 -276.5t4.5 -154t7 -72.5t12 -36q10 -20 23.5 -26.5t40.5 -6.5h20v-94h-303v94z" />
<glyph unicode="O" horiz-adv-x="1083" d="M51 530q0 217 8.5 364.5t26.5 248t48 162t73 104.5q55 59 136 91t192 32q119 0 204.5 -35t145.5 -96q41 -43 68.5 -103.5t45 -160t25.5 -247t8 -362.5q0 -209 -8 -347t-25.5 -227t-43 -140.5t-60.5 -87.5q-123 -127 -334 -127q-127 0 -217 32.5t-149 92.5q-37 37 -65 89 t-45 141t-25.5 227t-8.5 349zM264 530q0 -225 4 -360t12.5 -212t20.5 -109.5t29 -53.5q37 -47 90 -74.5t123 -27.5q74 0 132 33.5t93 95.5q12 20 21.5 51t15.5 102.5t9 202.5t3 350q0 242 -4 388.5t-12 230.5t-21.5 123t-29.5 63q-35 51 -86.5 79t-120.5 28 q-137 0 -211 -109q-16 -25 -29.5 -62.5t-22 -121.5t-12.5 -230.5t-4 -386.5z" />
<glyph unicode="P" horiz-adv-x="884" d="M39 -283h20q23 0 37.5 6.5t24.5 24.5q8 12 12 31.5t6 65.5t3 128t1 224q0 244 1 422t1 307q0 178 -4 277.5t-15 146.5t-31.5 57t-55.5 10v92h473q86 0 150.5 -23.5t111.5 -78.5t67.5 -130t20.5 -204q0 -59 -4 -105t-14 -83t-25.5 -67t-38.5 -58q-47 -59 -119.5 -87 t-164.5 -28h-170q0 -203 1 -344t3 -236.5t5 -150.5t7 -87t9 -46t11 -25q12 -23 31 -31t41 -8h43v-94h-438v94zM326 739h125q113 0 159 80q20 33 29.5 82t9.5 146q0 68 -3 117.5t-9 85.5t-15.5 60.5t-21.5 41.5q-25 35 -63.5 50t-85.5 15h-37q-41 0 -62 -47q-8 -16 -13 -40.5 t-8 -89t-4 -182.5t-1 -319z" />
<glyph unicode="Q" horiz-adv-x="1095" d="M49 756q0 123 6 216t19.5 165.5t35 128t54.5 98.5q59 78 151.5 123t227.5 45t225 -46t147 -126q31 -43 53.5 -98.5t36 -128t19.5 -167t6 -218.5q0 -162 -9 -272.5t-27.5 -186.5t-45 -122t-61.5 -79q-57 -55 -139 -80q27 -166 71.5 -228.5t116.5 -62.5h84v-94h-152 q-55 0 -97 17.5t-75 50.5q-41 39 -65.5 102.5t-52.5 186.5h-35q-229 0 -350 120q-37 37 -64 86.5t-45 125t-26.5 183t-8.5 261.5zM264 595q0 -69 4 -122h146q53 0 97 -12t85 -47q25 -20 42 -41t31.5 -51.5t28 -75.5t29.5 -115q43 37 61 105q6 27 11.5 67.5t9.5 100t6 141.5 t2 192q0 168 -5 275.5t-16.5 175t-26.5 103.5t-36 61q-35 41 -82 64.5t-108 23.5q-70 0 -121 -27t-86 -74q-18 -25 -31.5 -59.5t-23 -99t-13.5 -167t-4 -261.5v-157zM270 393q8 -106 24 -151t36 -72q37 -47 90 -74.5t123 -27.5h10q-14 70 -23.5 114.5t-17.5 74.5t-16.5 49.5 t-20.5 35.5q-23 33 -45 42t-70 9h-90z" />
<glyph unicode="R" horiz-adv-x="1230" d="M39 -283h18q39 0 53.5 11.5t18.5 48.5q4 23 6 46t3 61t2 97.5t2 157t1 239.5v345q0 150 -1 253t-2 174t-3 114t-5 67.5t-8 37.5t-11 26q-10 23 -50 22h-24v92h473q84 0 147.5 -24.5t108.5 -77.5q25 -29 42 -56.5t28.5 -65.5t17.5 -89t6 -123q0 -129 -28.5 -202.5 t-83.5 -122.5q-39 -35 -85.5 -51.5t-115.5 -20.5q31 -6 53.5 -19.5t50.5 -35.5q35 -27 77 -88.5t77 -145.5q27 -68 50.5 -141.5t48 -148t51 -148.5t61.5 -139q29 -51 57.5 -72t75.5 -21h74v-94h-135q-59 0 -104.5 11.5t-81.5 40t-65.5 77.5t-60.5 127q-49 121 -87 248 t-87 238q-47 100 -86 163.5t-88 92.5q-53 29 -104 34q0 -258 1 -418.5t3 -255t5 -137.5t7 -67q8 -41 22.5 -50.5t47.5 -9.5h20v-94h-393v94zM326 764h125q53 0 94 21.5t65 58.5q23 33 32 83t9 152q0 63 -2 105.5t-7 71t-13 48t-21 37.5q-25 37 -61.5 56.5t-95.5 19.5h-41 q-37 0 -56 -47q-10 -27 -15 -56.5t-8 -92t-4 -170t-1 -287.5z" />
<glyph unicode="S" horiz-adv-x="761" d="M31 -164l65 27q20 -76 77.5 -124t133.5 -48q113 0 166 76.5t53 189.5q0 80 -17 148.5t-49 135t-77 137.5t-98 159q-57 96 -94 170.5t-64 148.5q-23 66 -39 139.5t-16 145.5q0 80 20.5 150.5t60.5 124.5t101 85t143 31q78 0 121 -20.5t66 -53.5v94h96v-282h-96 q0 74 -43 124t-127 50q-37 0 -72 -18.5t-53 -57.5q-23 -47 -23 -162q0 -66 9.5 -123t34 -121.5t65.5 -144.5t104 -192q37 -66 63.5 -112t47 -82t37 -67.5t32.5 -68.5q33 -74 49.5 -135.5t16.5 -151.5q0 -203 -104.5 -306t-280.5 -103q-115 0 -196 57t-113 180z" />
<glyph unicode="T" horiz-adv-x="880" d="M18 1268v241h840v-241h-90q0 70 -16.5 100.5t-75.5 30.5h-84q-29 0 -39 -7.5t-16 -29.5q-4 -12 -6.5 -85t-4.5 -174.5t-2 -216v-212.5v-166t1 -194.5t2 -197t2 -174t3.5 -129t4.5 -59.5q6 -23 16 -30t39 -7h55v-94h-434v94h55q29 0 39 7.5t17 29.5q2 8 4 59.5t3 129 t2 174t2 197t1 193.5v167v212.5t-2 216t-4 174.5t-6 85q-6 23 -16.5 30t-39.5 7h-106q-29 0 -43.5 -36t-14.5 -95h-86z" />
<glyph unicode="U" horiz-adv-x="1079" d="M31 1417v92h409v-92h-26q-43 0 -60 -43q-8 -20 -13 -44.5t-7 -71t-3 -123t-1 -205.5q0 -66 -2 -242t-2 -424q0 -119 3 -192.5t8 -120.5t14 -76t22 -55q31 -70 82 -98.5t129 -28.5q66 0 110.5 16.5t71.5 57.5q27 39 45 84t29.5 110.5t15.5 161.5t4 242q0 205 -1 344 t-3 238.5t-4 172t-4 144.5q-2 59 -5 83.5t-16 43.5q-22 26 -56 26h-3h-23v92h306v-92h-27q-29 0 -47 -26q-8 -14 -13.5 -31t-8.5 -44.5t-4 -71.5t-1 -114q0 -61 1 -169.5t3 -239.5t3 -269.5t1 -256.5q0 -166 -21.5 -287t-74.5 -193q-43 -59 -112.5 -87.5t-186.5 -28.5 q-113 0 -203 33.5t-147 111.5q-25 33 -42 69.5t-28.5 83t-16.5 106.5t-5 144q0 197 4 403t4 451v164t-1 103t-3 61.5t-6 40.5q-6 27 -17.5 37t-46.5 10h-24z" />
<glyph unicode="V" horiz-adv-x="1026" d="M31 1417v92h432v-92h-27q-71 0 -71 -38q0 -13 3 -46t7 -78t11 -99t17 -109q41 -281 82 -554.5t86 -547.5q4 20 19.5 101t37 194.5t45 243.5t45 246t38 203t20.5 114q16 100 25.5 159.5t14.5 93t6 50t1 30.5q0 23 -16 30t-53 7h-25v92h287v-92h-25q-29 0 -43 -15.5 t-24 -45.5q-8 -33 -30 -142.5t-50.5 -264t-61 -339t-63.5 -366t-57.5 -345t-43.5 -276.5h-200q-18 162 -47 355.5t-63 394t-70.5 396.5t-71.5 361q-18 90 -30.5 142.5t-18.5 78t-10.5 35t-8.5 13.5q-12 18 -47 18h-20z" />
<glyph unicode="W" horiz-adv-x="1546" d="M31 1417v92h430v-92h-27q-72 0 -74 -39q0 -12 2.5 -45t6.5 -78t11 -99t13 -109q37 -281 72 -554.5t76 -547.5q6 23 28.5 129t54 262t67.5 341t71 365h147q47 -281 93.5 -553t97.5 -544q4 20 17 101t32.5 194.5t41 243.5t41 246t33 203t17.5 114q14 100 23.5 159.5 t14.5 93t6 50t1 30.5q0 23 -18.5 30t-53.5 7h-26v92h287v-92h-25q-29 0 -42 -15.5t-22 -45.5q-8 -33 -27.5 -141.5t-44 -262t-53 -336t-56 -363.5t-51.5 -347t-40 -283h-188q-16 109 -37 239t-45.5 270t-50 282.5t-52.5 275.5q-29 -139 -57.5 -290.5t-55 -294t-49 -268.5 t-36.5 -214h-201q-14 131 -37.5 309.5t-52.5 371t-59.5 381.5t-58.5 343t-48.5 255t-30.5 116q-12 18 -47 18h-18z" />
<glyph unicode="X" horiz-adv-x="1089" d="M31 -283h16q29 0 42 10.5t32 49.5q2 4 19.5 45t45 105.5t61.5 146.5t69.5 170t69.5 175t60 161q-100 252 -174.5 443t-140.5 331q-16 35 -31.5 49t-42.5 14h-22v92h432v-92h-37q-35 0 -47 -9t-12 -30q0 -31 49 -188.5t160 -450.5q111 293 156.5 450t45.5 189q0 39 -51 39 h-43v92h336v-92h-31q-33 0 -46.5 -11t-33.5 -52q-78 -170 -145.5 -347.5t-142.5 -373.5q76 -205 159.5 -422t186.5 -434q20 -41 31.5 -50.5t37.5 -9.5h31v-94h-434v94h39q31 0 43 8.5t12 28.5q0 74 -239 705q-121 -317 -179.5 -492.5t-58.5 -212.5q0 -20 8 -28.5t35 -8.5h39 v-94h-305v94z" />
<glyph unicode="Y" horiz-adv-x="1058" d="M14 1417v92h426v-92h-37q-59 0 -59 -39q0 -29 61.5 -188.5t180.5 -476.5q119 315 175 476t56 189q0 16 -10 27.5t-33 11.5h-47v92h317v-92h-16q-25 0 -40 -12t-38 -62q-35 -72 -75.5 -167t-83.5 -201.5t-87.5 -215t-82.5 -204.5v-254t-1.5 -196t-1.5 -148v-113 q0 -82 18.5 -104.5t68.5 -22.5h36v-94h-440v94h55q14 0 25.5 5.5t20 19.5t13.5 41t9 72q2 43 4 103t4 144t3 194t3 249q-29 82 -61.5 169t-73.5 185t-89 210t-108 245q-16 37 -30.5 50t-40.5 13h-21z" />
<glyph unicode="Z" d="M29 -285q10 35 33.5 118t54 197.5t67.5 251t73 277.5t70.5 277.5t63.5 251t48.5 199.5t25.5 120h-240q-35 0 -46 -30.5t-11 -78.5h-84v211h627v-92q-14 -41 -39 -129t-56.5 -203.5t-67.5 -252t-73 -275.5t-70.5 -272t-62.5 -243t-48.5 -188.5t-25.5 -109.5h367 q29 0 43 26.5t14 86.5h86v-234h-749v92z" />
<glyph unicode="[" horiz-adv-x="675" d="M217 -475v2156h416v-149h-246v-1858h246v-149h-416z" />
<glyph unicode="\" horiz-adv-x="575" d="M14 1614h156q14 -104 40 -258t58.5 -333t71.5 -372.5t78 -380t75.5 -354.5t67.5 -293h-155q-61 416 -158.5 911.5t-233.5 1079.5z" />
<glyph unicode="]" horiz-adv-x="675" d="M43 -326h244v1858h-244v149h416v-2156h-416v149z" />
<glyph unicode="^" d="M45 702l289 807h121l288 -807h-125l-225 650l-223 -650h-125z" />
<glyph unicode="_" horiz-adv-x="706" d="M-12 -39q117 -8 216 -12t197 -4q84 0 164 4t166 12v-145q-182 12 -348 12q-199 0 -395 -12v145z" />
<glyph unicode="`" horiz-adv-x="475" d="M25 1460h235l189 -321h-185z" />
<glyph unicode="a" horiz-adv-x="876" d="M20 219q0 78 29 126t101 91q53 35 121.5 64.5t134.5 70.5q29 18 59.5 37t52.5 43q0 88 -6 138.5t-27 78.5q-18 29 -42.5 39.5t-71.5 10.5q-51 0 -84 -18.5t-39 -47.5q90 -33 90 -139q0 -57 -37 -99.5t-92 -42.5q-59 0 -96 38t-37 114q0 66 25.5 118t69.5 89t102.5 56.5 t121.5 19.5q74 0 134.5 -18.5t99.5 -63.5q25 -29 40 -66t23 -91t11.5 -132t3.5 -189v-141t2 -85t3 -49t5 -32q6 -29 16 -37t23 -8q35 0 35 56v67h81v-76q0 -66 -39.5 -111.5t-117.5 -45.5q-55 0 -95 36.5t-65 85.5q-41 -57 -99.5 -91.5t-142.5 -34.5q-147 0 -220 63t-73 176 zM221 229q0 -61 42 -99t106 -38q37 0 63.5 12.5t45 31t30.5 40t18 41.5v84t-1 95t-2 95.5t-1 83.5q-35 -51 -88 -84.5t-100 -68.5q-51 -39 -82 -78t-31 -115z" />
<glyph unicode="b" horiz-adv-x="811" d="M-25 1483v94h306q0 -16 -4.5 -190.5t-12.5 -473.5q64 93 191 93q66 0 117 -19.5t92 -66.5q25 -29 44 -59t32.5 -75t20.5 -112.5t7 -171.5q0 -109 -7 -182.5t-22.5 -125t-38 -86t-53.5 -61.5q-41 -39 -97 -53t-116 -14q-74 0 -139.5 38.5t-101.5 104.5q-16 -47 -29.5 -80 t-24.5 -49l-88 29q6 51 11.5 93t8.5 84t5 90t4 112.5t2 152.5v211q0 51 -1 119.5t-3 143.5t-3 151.5t-1 146.5q0 72 -15.5 114t-83.5 42zM281 250q0 -70 37.5 -125t101.5 -55q29 0 57.5 14t46.5 37q8 12 14.5 31.5t10.5 60.5t5 109.5t1 179.5q0 106 -2 172.5t-7 106.5 t-12.5 58.5t-17.5 30.5q-37 43 -96 43q-35 0 -60.5 -14t-43 -38.5t-26.5 -55.5t-9 -64v-491z" />
<glyph unicode="c" horiz-adv-x="737" d="M43 483q0 166 31.5 266.5t91.5 159.5q45 47 103.5 72t123.5 25q80 0 137.5 -20.5t94.5 -57.5t54 -87t17 -108q0 -66 -37.5 -115t-93.5 -49q-59 0 -97 42t-38 102q0 53 25.5 94t72.5 51q-10 29 -39.5 49.5t-95.5 20.5q-29 0 -53.5 -15.5t-40.5 -38.5q-12 -14 -20.5 -34.5 t-14.5 -61.5t-8 -112.5t-2 -186.5q0 -98 2 -159.5t6 -99.5t11.5 -57.5t17.5 -31.5q49 -53 133 -53q86 0 146.5 51t76.5 119l55 -15q-78 -253 -307 -253h-2q-70 0 -130 29.5t-107 82.5q-53 61 -83 152.5t-30 238.5z" />
<glyph unicode="d" horiz-adv-x="833" d="M43 477q0 147 27.5 247.5t72.5 163t101.5 90.5t115.5 28q129 0 183 -93q0 154 -1 246t-3 145.5t-5.5 78t-7.5 42.5q-10 39 -24.5 50.5t-42.5 11.5h-33v90h307q-2 -37 -2 -70.5t-1 -75.5t-1 -100.5v-143.5v-203v-279v-227.5t1 -146t3 -96t6 -79.5q4 -39 16.5 -50.5 t51.5 -11.5h24v-94h-38q-78 0 -121 19.5t-70 78.5q-39 -49 -96 -83.5t-117 -34.5q-72 0 -135.5 31.5t-110.5 94t-73.5 155.5t-26.5 216zM254 477q0 -104 2 -167.5t6 -101.5t10.5 -57.5t16.5 -31.5q18 -23 44.5 -36t55.5 -13q68 0 103.5 55t35.5 125v491q0 66 -35.5 119 t-103.5 53q-53 0 -90 -47q-10 -12 -18.5 -30.5t-14.5 -59.5t-9 -111.5t-3 -187.5z" />
<glyph unicode="e" horiz-adv-x="735" d="M43 485q0 154 29.5 248t83.5 156q47 53 107.5 85t129.5 32q141 0 222 -72t81 -217q0 -31 -6 -54.5t-24.5 -44t-50 -39t-83.5 -40.5l-278 -123q0 -82 3 -134.5t9 -84t15.5 -50t19.5 -30.5q41 -47 92 -47q104 0 169 54t85 122l55 -13q-78 -253 -307 -253h-2 q-88 0 -157.5 46t-116.5 124q-37 59 -56.5 141t-19.5 194zM254 526l240 99q29 10 41 33.5t12 70.5q0 92 -32 138t-122 46q-31 0 -56.5 -15t-45.5 -40q-10 -12 -16.5 -28.5t-11.5 -52.5t-7 -95t-2 -156z" />
<glyph unicode="f" horiz-adv-x="651" d="M18 891v92h123v180q0 131 21.5 216t58.5 134.5t89.5 67.5t113.5 18q43 0 88 -15t81 -51t58.5 -92.5t22.5 -137.5q0 -57 -34 -98.5t-91 -41.5t-93 43t-36 103q0 109 96 143q-4 29 -26.5 44t-53.5 15q-33 0 -56.5 -16t-37.5 -56t-20.5 -107.5t-6.5 -172.5v-176h158v-92 h-160v-176q0 -168 1 -269.5t4.5 -159t6.5 -84t7 -46.5q8 -39 23.5 -50.5t66.5 -11.5h29v-94h-422v94h30q23 0 33 10.5t21 38.5q8 27 14 55.5t9 88t4 161t1 273.5v170h-123z" />
<glyph unicode="g" horiz-adv-x="841" d="M-6 -143q0 131 68.5 206.5t179.5 75.5q35 0 74.5 -7t75.5 -19.5t64.5 -28.5t41.5 -35q-4 33 -25.5 69t-56.5 64q-25 23 -47.5 30t-53.5 15q-94 25 -149 80q-59 59 -85 142t-26 194q0 166 91.5 264.5t254.5 98.5q57 0 109.5 -17.5t93.5 -64.5q18 119 51 189.5t111 70.5 q59 0 85 -30t26 -83t-26 -85t-83 -32q-45 0 -68.5 -15t-46.5 -69q45 -43 68.5 -109.5t23.5 -125.5q0 -80 -14 -147.5t-46 -120t-82 -86t-124 -43.5q25 -29 44.5 -60t33.5 -67.5t27.5 -81.5t25.5 -101q-96 82 -243 82q-164 0 -164 -180q0 -109 70.5 -162t177.5 -53 q117 0 187.5 55.5t90.5 159.5l55 -18q-23 -127 -114.5 -207t-227.5 -80q-100 0 -183 23.5t-141.5 67.5t-91 105.5t-32.5 135.5zM262 621q0 -68 3 -115t9.5 -78t14.5 -48.5t18 -29.5q35 -45 94 -45q57 0 97 51q10 12 17 27.5t12 44.5t8.5 75t3.5 118q0 66 -3.5 109.5t-8.5 71 t-12 44t-17 28.5q-37 49 -97 50q-59 0 -96 -50q-10 -12 -18 -28.5t-13.5 -44t-8.5 -71.5t-3 -109z" />
<glyph unicode="h" horiz-adv-x="937" d="M39 0v94h31q57 0 59 64q10 188 12 366t2 365q0 115 -2 240.5t-12 291.5q-4 45 -25.5 53.5t-64.5 8.5v94h303q0 -104 -2 -260t-6 -391q29 41 70.5 60.5t107.5 19.5t120 -20.5t95 -55.5q47 -41 73.5 -98.5t26.5 -126.5v-277q0 -123 4.5 -190.5t15.5 -99.5t29.5 -38t47.5 -6 v-94h-396v94h29q25 0 39 5t21.5 29t8.5 70t1 126v405q0 31 -9.5 60.5t-29.5 54.5q-18 23 -46 38t-61 15q-70 0 -109.5 -52t-39.5 -120v-420q0 -59 3 -100t13 -65.5t29.5 -35t54.5 -10.5v-94h-393z" />
<glyph unicode="i" horiz-adv-x="471" d="M39 0v94h31q18 0 29.5 8.5t21.5 34.5q8 18 12 40t7 72t4 146.5t1 266.5q0 86 -6 133t-33 69q-10 10 -24 18.5t-31 8.5h-12v92h305q-2 -16 -4 -45t-4 -86t-3 -149.5t-1 -231.5q0 -109 1 -170t4 -97t10 -52.5t20 -32.5q20 -25 49 -25h16v-94h-393zM96 1370q0 66 36 108 t95 42t96 -42t37 -108t-37 -105.5t-96 -39.5t-95 40t-36 105z" />
<glyph unicode="j" horiz-adv-x="436" d="M-274 -205q0 70 36.5 108t92.5 38q59 0 96 -38t37 -98q0 -55 -22.5 -83.5t-69.5 -43.5q6 -25 31.5 -42t74.5 -17q41 0 70.5 16.5t50.5 55.5q14 27 24.5 55.5t16.5 68.5t10 98t6 145t2 210v293q0 102 -4 167t-14 100.5t-27.5 49t-44.5 13.5h-20v92h305q-6 -70 -9 -134.5 t-6.5 -146t-4.5 -193.5t-1 -273v-261q0 -211 -88 -330.5t-243 -119.5q-133 0 -216 70.5t-83 199.5zM127 1370q0 66 37 108t96 42t95 -42t36 -108t-36 -105.5t-95 -39.5t-96 40t-37 105z" />
<glyph unicode="k" horiz-adv-x="851" d="M39 0v94h47q16 0 25.5 10.5t17.5 47.5q4 18 7 35.5t5 52t4 92t3.5 156t1.5 242.5v353q0 100 -1.5 163t-4.5 101.5t-10 61.5t-19 41q-23 37 -62 37h-14v90h305q-4 -51 -7 -135t-5 -191.5t-4 -233.5t-2 -261v-126t2 -128q31 33 65.5 71.5t67.5 79.5t60.5 79t45.5 67 q27 39 27 57q0 35 -82 35v92h305v-92h-22q-23 0 -42.5 -13.5t-50.5 -41.5q-10 -12 -43.5 -53.5t-73.5 -93.5t-80 -104.5t-63 -84.5q53 -12 97 -72q23 -29 43 -63.5t39.5 -68.5t39 -65.5t39.5 -54.5q43 -47 71 -64.5t63 -17.5h14v-94h-94q-49 0 -88 10t-75 39t-71 83t-74 140 q-33 76 -60.5 116t-55.5 63q0 -76 1 -122t2 -76t4 -51.5t7 -45.5q8 -41 23.5 -51.5t66.5 -10.5v-94h-395z" />
<glyph unicode="l" horiz-adv-x="473" d="M39 0v94h33q14 0 24 7.5t19 33.5q8 27 14 62.5t9 113.5t5 213t2 359v251t-2 150t-4 84t-8 53q-8 41 -18.5 53.5t-49.5 12.5h-24v90h303q0 -53 -2 -106.5t-4 -129t-3 -186.5t-1 -283q0 -238 1 -375t2 -209.5t3 -97t4 -34.5q6 -35 17.5 -48.5t43.5 -13.5h31v-94h-395z" />
<glyph unicode="m" horiz-adv-x="1359" d="M31 0v94h30q41 0 56 41q4 12 7 28.5t4 59.5t2 127t1 236v133t-2 79.5t-5 42t-9 19.5q-12 12 -25.5 21.5t-38.5 9.5h-20v92h55q41 0 67.5 -5t45 -17.5t32 -31t27.5 -42.5q20 29 40.5 50t47.5 36.5t62.5 24t85.5 8.5q84 0 132 -35t76 -86q39 57 93.5 89t150.5 32 q86 0 144.5 -29t95.5 -74t52 -99t15 -104q0 -199 1 -311.5t3.5 -170.5t5.5 -76.5t5 -24.5q8 -23 53 -23h22v-94h-378v94h14q39 0 49 17q6 6 10 19t7.5 55t5.5 121t2 218q0 98 -2 154.5t-7.5 89.5t-14.5 49.5t-23 34.5q-35 43 -103 43q-37 0 -62.5 -14.5t-39.5 -34.5 q-20 -29 -25.5 -74t-5.5 -137q0 -174 2 -273.5t4 -151.5t5 -69.5t5 -23.5q8 -23 54 -23h22v-94h-354v94h16q39 0 49 17q4 6 8.5 19t7.5 55t5 122t2 219q0 100 -1 158.5t-4 91.5t-10.5 48.5t-17.5 29.5q-16 23 -34.5 32t-53.5 9q-37 0 -61.5 -14.5t-40.5 -34.5 q-12 -16 -21.5 -39t-14.5 -59.5t-7 -93t-2 -140.5v-204.5t1 -111.5t2 -50.5t5 -20.5q12 -33 55 -33h21v-94h-381z" />
<glyph unicode="n" horiz-adv-x="927" d="M31 0v94h30q41 0 56 41q4 12 7 28.5t4 59.5t2 127t1 236v133t-2 79.5t-5 42t-9 19.5q-12 12 -25.5 21.5t-38.5 9.5h-20v92h55q41 0 67.5 -5t45 -17.5t32 -31t27.5 -42.5q41 57 99.5 88t160.5 31q86 0 144.5 -29t94.5 -74t51 -99t15 -104q0 -199 2 -311.5t4 -170.5 t5.5 -76.5t5.5 -24.5q8 -23 53 -23h22v-94h-393v94h29q39 0 49 17q6 6 10 19t7.5 55t5.5 121t2 218q0 98 -2 154.5t-7.5 89.5t-14.5 49.5t-23 34.5q-35 43 -103 43q-37 0 -61.5 -14.5t-40.5 -34.5q-12 -16 -21.5 -39t-14.5 -59.5t-7 -93t-2 -140.5v-204.5t1 -111.5t2 -50.5 t5 -20.5q6 -16 20.5 -24.5t49.5 -8.5h20v-94h-395z" />
<glyph unicode="o" d="M43 483q0 94 9 162t25.5 118t40 86t54.5 64q45 43 101.5 68t119.5 25q61 0 115.5 -21.5t99.5 -62.5q31 -29 56.5 -62t44 -82t27.5 -120.5t9 -178.5q0 -84 -8 -145.5t-23.5 -107.5t-38 -80.5t-48.5 -63.5q-47 -51 -106.5 -76.5t-127.5 -25.5q-72 0 -133 28.5t-108 81.5 q-25 29 -45.5 60.5t-35 76.5t-21.5 106.5t-7 149.5zM254 483q0 -109 3 -175t8 -105t12.5 -56.5t17.5 -29.5q18 -23 44 -35t54 -12q61 0 96 45q10 12 17.5 29.5t12.5 56.5t8 105.5t3 176.5q0 117 -3 187.5t-7 110.5t-12 58.5t-16 28.5q-40 45 -99 45t-98 -45 q-10 -10 -17.5 -27.5t-12.5 -57.5t-8 -111.5t-3 -188.5z" />
<glyph unicode="p" horiz-adv-x="856" d="M18 -383q41 0 61.5 8t31.5 33q8 20 9 49t1 80v492v227t-1 146.5t-3 97t-6 79.5q-4 39 -16.5 50.5t-51.5 11.5h-25v92h39q78 0 121 -19.5t70 -76.5q39 49 96 84t117 35q72 0 135 -32t110.5 -94.5t74 -155.5t26.5 -216q0 -147 -27.5 -248.5t-72.5 -163t-102.5 -89 t-115.5 -27.5q-131 0 -182 90v-283q0 -66 9.5 -98.5t21.5 -48.5q14 -16 31.5 -19.5t44.5 -3.5v-92h-396v92zM322 244q0 -33 9 -65t26.5 -56.5t43 -38.5t60.5 -14q27 0 50.5 13t39.5 34q10 12 18.5 31.5t14.5 60.5t9 111.5t3 187.5q0 104 -2 167.5t-6 101.5t-11.5 56.5 t-15.5 30.5q-18 25 -45 37t-55 12q-68 0 -103.5 -54t-35.5 -124v-491z" />
<glyph unicode="q" horiz-adv-x="856" d="M45 508q0 123 26.5 216t74 155.5t110.5 94.5t135 32q59 0 116.5 -35t96.5 -84q27 57 70 76.5t121 19.5h39v-92h-25q-39 0 -51.5 -11.5t-16.5 -50.5q-4 -41 -6 -79.5t-3 -97t-1 -146.5v-227v-459q0 -78 3 -106.5t14 -47.5q12 -27 36 -26q12 0 23 12q8 16 8 45v59h84v-73 q0 -72 -43 -115t-115 -43q-47 0 -83.5 19.5t-57.5 45.5q-16 23 -26.5 42.5t-16.5 42t-9 53t-3 73.5v269q-51 -90 -183 -90q-59 0 -115.5 27.5t-101.5 89t-72.5 162.5t-27.5 249zM256 508q0 -117 3 -187.5t9 -111.5t14.5 -60.5t18.5 -31.5q16 -20 40 -33.5t50 -13.5 q33 0 59.5 14t44 38.5t26.5 56.5t9 65v491q0 70 -35.5 124t-103.5 54q-29 0 -55.5 -12t-44.5 -37q-10 -12 -16.5 -30.5t-10.5 -56.5t-6 -101.5t-2 -167.5z" />
<glyph unicode="r" horiz-adv-x="774" d="M31 0v94h30q41 0 56 41q4 12 7 28.5t4 59.5t2 127t1 236v133t-2 79.5t-5 42t-9 19.5q-12 12 -25.5 21.5t-38.5 9.5h-20v92h55q41 0 68.5 -5t47 -17.5t34 -31.5t28.5 -48q35 49 94.5 87t141.5 38q123 0 184 -66t61 -213q0 -70 -38.5 -112t-96.5 -42q-59 0 -94 39t-35 103 q0 53 28 95t79 42q0 35 -25.5 47t-54.5 12q-86 0 -133 -67.5t-47 -225.5v-104v-204.5t1 -111.5t2 -50.5t5 -20.5q6 -16 20.5 -24.5t49.5 -8.5h49v-94h-424z" />
<glyph unicode="s" horiz-adv-x="696" d="M20 256l62 16q12 -94 78.5 -148t148.5 -54q70 0 115 42t45 121q0 47 -11.5 74t-41.5 58q-20 20 -56 42.5t-76 45t-78 46t-63 48.5q-43 43 -62.5 92t-19.5 102q0 121 78 193t199 72q53 0 102 -20.5t80 -76.5v97h82v-289h-82v18q0 31 -6 56.5t-25 54.5q-23 35 -52 53.5 t-77 18.5q-57 0 -85.5 -31t-28.5 -86q0 -41 18.5 -70t57.5 -55q29 -18 65.5 -36.5t85.5 -43.5q78 -37 119 -92q35 -43 48 -87t13 -102q0 -84 -26.5 -146.5t-72.5 -104t-107.5 -63t-131.5 -21.5q-55 0 -106 17t-91 53t-66.5 87t-31.5 119z" />
<glyph unicode="t" horiz-adv-x="546" d="M33 891v92h14q49 0 90 33t71 84t46 115.5t16 125.5v41h78v-399h168v-92h-168q-6 -51 -9 -103.5t-6 -121t-4 -159.5t-1 -220q0 -90 1 -145.5t4 -91.5t7 -60.5t12 -50.5q12 -47 40 -66.5t65 -19.5q47 0 75.5 29.5t38.5 68.5l58 -12q-2 -31 -17.5 -63t-42 -56.5t-63.5 -41 t-84 -16.5q-68 0 -120 19.5t-93 81.5q-14 23 -25.5 53.5t-18.5 78.5t-11 118.5t-4 173.5v261t-1.5 165.5t-3.5 103.5t-4 74h-108z" />
<glyph unicode="u" horiz-adv-x="862" d="M16 891v92h398v-92h-31q-29 0 -47 -21q-8 -8 -12.5 -20t-7.5 -48t-4 -102.5t-1 -185.5q0 -106 2 -170.5t5.5 -102.5t8.5 -57.5t13 -36.5q20 -41 47 -56t74 -15q41 0 68.5 16.5t48.5 54.5q8 16 13 36t8 56.5t4 97t1 163.5q0 106 -1 170.5t-2 103.5t-4 56.5t-7 27.5 q-10 33 -66 33h-16v92h344v-92h-25q-39 0 -53 -27q-6 -8 -9 -22.5t-4 -55.5t-2 -117.5t-1 -209.5q0 -86 -3 -144.5t-8.5 -98.5t-14.5 -66.5t-21 -47.5q-71 -122 -251 -122h-3q-92 0 -164 24.5t-117 77.5q-18 20 -30.5 49t-19.5 75t-11 113.5t-4 165.5q0 125 -1 199t-2.5 113 t-4.5 52t-7 19q-8 12 -24.5 17.5t-55.5 5.5z" />
<glyph unicode="v" horiz-adv-x="800" d="M31 891v92h381v-92h-25q-20 0 -44 -6t-24 -41q0 -8 1.5 -20.5t5.5 -35.5q29 -143 63.5 -281t69.5 -247q31 109 63.5 252t63.5 317q2 6 2 21q0 41 -72 41h-16v92h270v-92h-18q-23 0 -37.5 -11.5t-26.5 -50.5q-23 -68 -48.5 -159.5t-53 -199.5t-55 -227.5t-52.5 -242.5 h-145q-23 100 -53.5 223t-63.5 243t-63.5 222.5t-53.5 161.5q-14 41 -55 41h-14z" />
<glyph unicode="w" horiz-adv-x="1232" d="M31 891v92h391v-92h-39q-20 0 -45 -6t-25 -41q0 -8 1 -20.5t5 -35.5q23 -143 52.5 -281t62.5 -247q16 51 39 127t44.5 157t39.5 156.5t25 126.5h172q10 -51 29.5 -125.5t43 -154.5t48 -157t45.5 -130q27 98 51 231.5t47 290.5q2 10 4 34t2 34q0 16 -16.5 28.5t-51.5 12.5 h-28v92h276v-92h-18q-23 0 -36 -11.5t-24 -50.5q-20 -68 -41.5 -159.5t-45 -199.5t-45 -227.5t-42.5 -242.5h-131q-18 72 -42.5 156t-50.5 170t-52.5 170t-50.5 157q-41 -135 -88.5 -303t-87.5 -350h-144q-20 100 -48 223t-56.5 243t-56 222.5t-48.5 161.5q-14 41 -55 41 h-10z" />
<glyph unicode="x" horiz-adv-x="794" d="M16 0v94h21q23 0 42 5t36 22q14 14 31.5 38.5t42 68.5t56 108.5t79.5 159.5q-45 74 -91.5 158.5t-105.5 172.5q-23 35 -41 49.5t-43 14.5h-27v92h369v-92h-10q-25 0 -39 -11.5t-14 -27.5q0 -33 106 -246q53 109 81 170.5t28 75.5q0 16 -12.5 27.5t-37.5 11.5h-14v92h289 v-92h-29q-23 0 -38 -6t-31 -17q-16 -12 -33 -36.5t-38.5 -64.5t-51 -98.5t-72.5 -138.5q18 -47 45 -103t56.5 -110.5t58 -101.5t53.5 -76q37 -45 80 -45h18v-94h-368v94h18q23 0 39 9.5t16 27.5q0 53 -116 279q-55 -113 -86 -182.5t-31 -96.5q0 -16 9 -26.5t40 -10.5h14v-94 h-299z" />
<glyph unicode="y" horiz-adv-x="811" d="M-43 -219q0 72 36 115t95 43q55 0 88 -35t33 -101q0 -57 -32 -91t-89 -34q0 -33 27.5 -48t52.5 -15q70 0 108 59q14 20 24.5 41t21 52.5t22.5 83t33 133.5q-6 23 -25.5 88t-45 152t-55.5 185.5t-55.5 184.5t-46 150.5t-28.5 84.5q-12 35 -24.5 48.5t-41.5 13.5h-24v92 h397v-92h-37q-55 0 -55 -45q0 -23 9 -76t26.5 -130t44 -173t61.5 -207q27 100 49.5 194.5t40 170t26.5 130t11 79.5q2 29 -8 43t-47 14h-31v92h270v-92h-12q-53 0 -71 -62q-6 -20 -21.5 -80.5t-35 -141.5t-42 -174t-44 -180t-41 -162t-29.5 -116q-25 -109 -52.5 -192.5 t-62.5 -141t-82 -87t-115 -29.5q-63 0 -106 20.5t-68.5 56.5t-37 82t-11.5 97z" />
<glyph unicode="z" horiz-adv-x="778" d="M51 0v94q25 37 59.5 99.5t74.5 136t81 153.5t78 155t65.5 137.5t45.5 101.5h-258q-57 0 -58 -99v-20h-88v225h662v-92q-23 -37 -59 -100.5t-76.5 -140.5t-83.5 -158.5t-81 -156.5t-68 -135.5t-44 -90.5h289q57 0 57 98v22h86v-229h-682z" />
<glyph unicode="{" horiz-adv-x="675" d="M156 551v102q68 14 91 58.5t23 117.5q0 33 -8 88.5t-17 122t-17.5 139t-8.5 140.5q0 80 30 146.5t84 114.5t131 74.5t169 26.5v-104q-117 -23 -181.5 -79t-64.5 -171q0 -37 8 -97.5t17.5 -129t17.5 -137t8 -121.5q0 -66 -23.5 -132.5t-88.5 -107.5q66 -41 89 -107.5 t23 -129.5q0 -53 -8 -122t-17.5 -137.5t-17.5 -129t-8 -97.5q0 -115 64.5 -171t181.5 -79v-104q-92 0 -169 26.5t-131 74.5t-84 114.5t-30 146.5q0 68 8.5 140.5t17.5 138t17 121t8 90.5q0 74 -23.5 118t-90.5 56z" />
<glyph unicode="|" horiz-adv-x="552" d="M193 -475v2156h169v-2156h-169z" />
<glyph unicode="}" horiz-adv-x="675" d="M43 -371q117 23 180.5 79t63.5 171q0 37 -8.5 97.5t-17.5 129t-17 137t-8 122.5q0 63 24.5 129.5t89.5 107.5q-66 41 -90 107.5t-24 132.5q0 53 8 121.5t17 137t17.5 129t8.5 97.5q0 115 -63.5 171t-180.5 79v104q92 0 168 -26.5t131 -74.5t85 -114.5t30 -146.5 q0 -68 -8.5 -140.5t-17.5 -139t-17 -122t-8 -88.5q0 -74 23.5 -117.5t90.5 -58.5v-102q-68 -12 -91 -56t-23 -118q0 -35 8 -90.5t17 -121t17.5 -138t8.5 -140.5q0 -80 -30 -146.5t-85 -114.5t-131 -74.5t-168 -26.5v104z" />
<glyph unicode="~" horiz-adv-x="872" d="M33 721q23 31 52.5 58.5t63 49t69.5 35t67 13.5q47 0 86 -19.5t74.5 -43t70.5 -43t74 -19.5q53 0 107.5 36.5t95.5 83.5l47 -112q-16 -25 -44 -47.5t-59.5 -39t-64.5 -26.5t-58 -10q-47 0 -89 19.5t-82 42t-77.5 42t-74.5 19.5q-53 0 -109.5 -43t-103.5 -109z" />
<glyph unicode="&#xa1;" horiz-adv-x="450" d="M74 -258q0 10 1 20.5t3 20.5q14 94 31.5 191.5t32 188.5t24.5 173t12 143q2 45 3 92t1 107h64q0 -102 3 -177t10 -144.5t19.5 -141.5t28.5 -166q18 -104 29.5 -162.5t17.5 -88t7 -39t1 -15.5q0 -63 -42 -104t-105 -41q-66 0 -103.5 41t-37.5 102zM74 977q0 70 37 113 t98 43q59 0 96 -43t37 -113q0 -68 -37 -112t-96 -44q-61 0 -98 44t-37 112z" />
<glyph unicode="&#xa2;" horiz-adv-x="780" d="M55 725q0 133 23.5 227.5t64.5 155.5t98.5 93t123.5 40q0 90 -3.5 155.5t-7.5 112.5h105q-8 -43 -11.5 -109.5t-3.5 -156.5q70 -6 119 -28.5t82 -58.5t48.5 -83t15.5 -100q0 -66 -38 -115t-93 -49q-59 0 -97.5 42t-38.5 103q0 53 26 93t73 53q-10 29 -39 49t-94 20 q-29 0 -54.5 -16t-42.5 -37q-12 -14 -20 -34.5t-14.5 -62.5t-8.5 -112.5t-2 -185.5q0 -98 2 -159.5t6.5 -99.5t12.5 -57.5t18 -31.5q43 -53 131 -54q86 0 146.5 50.5t76.5 117.5l56 -12q-35 -117 -102.5 -181.5t-170.5 -74.5q2 -90 5.5 -135t7.5 -84h-101q4 49 5 108.5 t1 114.5q-63 8 -118.5 42t-97.5 94.5t-65.5 150.5t-23.5 215z" />
<glyph unicode="&#xa3;" horiz-adv-x="1081" d="M18 82q39 14 74 33.5t61.5 51.5t43 80t16.5 122q0 86 -9 157.5t-22 143.5h-141v96h127q-4 41 -7 84t-3 92q0 119 27.5 226.5t86 188.5t150.5 128t221 47q80 0 144.5 -21.5t108.5 -59.5t68.5 -88t24.5 -108q0 -59 -37 -108t-96 -49q-57 0 -94 36.5t-37 106.5q0 59 26.5 94 t67.5 45q-51 59 -170 60q-139 0 -208.5 -103.5t-69.5 -277.5q0 -47 12 -126t29 -167h487v-96h-473q8 -49 12 -94.5t4 -83.5q0 -162 -86 -283q57 29 98.5 35t94.5 6q70 0 120 -20.5t88 -44t67.5 -44t60.5 -20.5q47 0 72.5 12t48.5 57l63 -30q-41 -90 -90 -135t-127 -45 q-59 0 -108.5 20t-94.5 46t-89 46.5t-93 20.5q-47 0 -80 -2t-60.5 -7.5t-53 -13.5t-58.5 -20q-39 -23 -80 -41.5t-88 -28.5z" />
<glyph unicode="&#xa4;" horiz-adv-x="1046" d="M43 342l158 158q-33 53 -51.5 113.5t-18.5 127.5q0 66 17.5 125.5t48.5 110.5l-152 153l82 87l145 -148q49 45 111.5 70.5t132.5 25.5t133.5 -26.5t112.5 -73.5l151 152l86 -87l-161 -159q29 -49 46 -108.5t17 -121.5q0 -66 -18.5 -124t-46.5 -109l165 -166l-86 -82 l-155 156q-49 -45 -112.5 -71t-131.5 -26q-70 0 -131 25t-109 68l-151 -152zM227 741q0 -66 22.5 -125t61.5 -103t92.5 -69.5t112.5 -25.5t111.5 25.5t91.5 69.5t61.5 103.5t22.5 124.5q0 66 -22.5 125.5t-61.5 103.5t-91.5 69.5t-111.5 25.5t-112.5 -25.5t-92.5 -69.5 t-61.5 -103.5t-22.5 -125.5z" />
<glyph unicode="&#xa5;" horiz-adv-x="1095" d="M35 1417v92h426v-92h-49q-47 0 -47 -33q0 -6 3 -21t9 -36q23 -70 79 -211t144 -358q96 233 152.5 379.5t76.5 208.5q8 27 9 38q0 33 -31 33h-62v92h318v-92h-14q-20 0 -30.5 -4t-21.5 -18q-8 -8 -15 -19.5t-18.5 -34t-30 -61.5t-46.5 -102q-68 -145 -111 -237.5 t-69.5 -152t-41 -94.5t-24.5 -63h322v-103h-326v-110h326v-107h-326v-123q0 -57 21.5 -75.5t56.5 -18.5h33v-94h-396v94h23q29 0 54.5 14.5t25.5 79.5v123h-303v107h305v110h-305v103h297q-29 74 -61 151.5t-72 165.5t-87 187.5t-104 220.5q-18 41 -32.5 51t-45.5 10h-12z " />
<glyph unicode="&#xa6;" horiz-adv-x="552" d="M193 397h169v-872h-169v872zM193 881v800h169v-800h-169z" />
<glyph unicode="&#xa7;" horiz-adv-x="722" d="M20 256l62 16q12 -94 78.5 -148t148.5 -54q70 0 115 42t45 121q0 66 -34 106t-83 70.5t-106.5 60.5t-102.5 77q-43 43 -62.5 92t-19.5 102q0 98 54.5 166t144.5 90q-106 57 -148 124t-42 147q0 121 78.5 192.5t199.5 71.5q53 0 101.5 -20.5t78.5 -75.5v96h82v-289h-82v19 q0 35 -10 67.5t-30.5 58t-50 41t-68.5 15.5q-55 0 -85 -31t-30 -86q0 -35 13.5 -60.5t41 -48t70.5 -45t102 -51.5q100 -47 140.5 -119.5t40.5 -160.5q0 -98 -36 -168t-96 -111q68 -47 95.5 -110.5t27.5 -137.5q0 -84 -26.5 -146.5t-72.5 -104t-107.5 -63t-131.5 -21.5 q-55 0 -106 17t-91 53t-66.5 87t-31.5 119zM246 801q0 -41 18.5 -69.5t57.5 -55.5q16 -14 40.5 -25.5t53.5 -25.5q61 39 61 135q0 45 -15.5 78.5t-68.5 76.5q-8 0 -16 1.5t-17 1.5q-57 0 -85.5 -31t-28.5 -86z" />
<glyph unicode="&#xa8;" horiz-adv-x="798" d="M86 1370q0 66 36 108t95 42t96 -42t37 -108t-37 -105.5t-96 -39.5t-95 40t-36 105zM446 1370q0 66 37 108t97 42q59 0 95 -42t36 -108t-36 -105.5t-95 -39.5t-96.5 40t-37.5 105z" />
<glyph unicode="&#xaa;" horiz-adv-x="602" d="M37 1057q0 49 18.5 79.5t63.5 59.5q37 23 67.5 38t56 27.5t47 25.5t42.5 34q0 88 -17.5 111.5t-58.5 23.5q-39 0 -53 -18q27 -12 36 -32t9 -58q0 -41 -25.5 -67t-60.5 -26q-41 0 -66.5 24t-25.5 73q0 86 60 134t142 48q47 0 85 -11.5t63 -39.5q27 -31 37 -96.5t6 -190.5 q-2 -70 -2 -109.5t2 -60t5 -26t7 -5.5q14 0 14 19v53h80v-57q0 -43 -28.5 -75t-77.5 -32q-35 0 -61.5 22.5t-43.5 51.5q-20 -35 -56 -56.5t-79 -21.5q-92 0 -139 42t-47 116zM41 705v141q76 -10 143.5 -15.5t132.5 -5.5q55 0 110.5 5.5t111.5 15.5v-141q-57 8 -114.5 11 t-117.5 3q-66 0 -133.5 -3t-132.5 -11zM182 1061q0 -29 21.5 -47.5t50.5 -18.5q37 0 55.5 23t26.5 41q-2 23 -2 49.5v54.5v68q-16 -10 -35.5 -26.5t-54.5 -39.5q-35 -25 -48.5 -45t-13.5 -59z" />
<glyph unicode="&#xab;" horiz-adv-x="784" d="M35 588v205l321 217v-170l-241 -150l241 -139v-180zM426 588v205l321 217v-170l-241 -150l241 -139v-180z" />
<glyph unicode="&#xac;" horiz-adv-x="872" d="M33 680v119h807v-799h-119v680h-688z" />
<glyph unicode="&#xad;" horiz-adv-x="528" d="M37 539v168q70 -8 131 -13.5t121 -5.5q98 0 200 19v-168q-104 12 -210 12q-123 0 -242 -12z" />
<glyph unicode="&#xaf;" horiz-adv-x="688" d="M39 1206v168q96 -8 179 -14t161 -6q68 0 134.5 5t135.5 15v-168q-145 12 -282 13q-166 0 -328 -13z" />
<glyph unicode="&#xb0;" horiz-adv-x="630" d="M59 1257q0 123 70 199t186 76q117 0 186.5 -76t69.5 -199q0 -121 -69.5 -197.5t-186.5 -76.5t-186.5 77t-69.5 197zM188 1257q0 -66 34 -105.5t93 -39.5q57 0 92 40t35 105q0 66 -34.5 106t-92.5 40q-59 0 -93 -40t-34 -106z" />
<glyph unicode="&#xb1;" horiz-adv-x="872" d="M33 2v119h807v-119h-807zM33 680v119h342v342h119v-342h346v-119h-346v-346h-119v346h-342z" />
<glyph unicode="&#xb2;" horiz-adv-x="487" d="M53 707v100q0 74 11.5 123t33 85t52 62.5t69.5 57.5q92 74 92 206q0 63 -24.5 99.5t-65.5 36.5t-45 -13q43 -27 43 -82q0 -37 -23.5 -63.5t-58.5 -26.5t-59.5 25.5t-24.5 60.5q0 78 48 126t126 48q96 0 149.5 -56t53.5 -167q0 -84 -36 -142.5t-113 -111.5 q-37 -27 -58.5 -50.5t-34 -51t-15.5 -64.5t-3 -88v-33h170q20 0 20 60h66v-141h-373z" />
<glyph unicode="&#xb3;" horiz-adv-x="491" d="M49 866q0 33 24.5 59.5t57.5 26.5q37 0 60.5 -27.5t23.5 -62.5q0 -63 -43 -84q8 -12 43 -12q25 0 39 7t25 22q4 6 9 14t8 24.5t5 44t2 70.5q0 98 -13.5 134t-58.5 36h-61v64h61q35 0 47.5 27.5t12.5 123.5q0 53 -5 83t-15.5 43.5t-24 15.5t-27.5 2q-29 0 -41 -13 q43 -27 43 -82q0 -37 -24.5 -63.5t-57.5 -26.5q-37 0 -60.5 25.5t-23.5 66.5q0 72 46 118t135 46q86 0 135 -54t49 -155q0 -78 -16.5 -124t-59.5 -68q43 -29 67.5 -77t24.5 -130q0 -51 -13 -97t-40 -80t-67 -53.5t-93 -19.5q-78 0 -126 48t-48 128z" />
<glyph unicode="&#xb4;" horiz-adv-x="475" d="M25 1139l190 321h234l-238 -321h-186z" />
<glyph unicode="&#xb6;" horiz-adv-x="1263" d="M39 1073q0 129 20.5 204t67.5 130t111.5 78.5t150.5 23.5h836v-92q-35 0 -56.5 -10t-33 -57t-14.5 -146.5t-3 -277.5v-194t1 -300t1 -379v-430h-192q2 43 4 154.5t3 264.5t2 334t1 363q0 201 -2 319t-5 182.5t-8 89t-12 40.5q-10 27 -26.5 37t-40.5 10q-37 0 -58 -33 q-10 -14 -15 -38.5t-9 -73.5t-5 -132t-1 -214v-194t1 -300t1 -379v-430h-191q2 43 3 153.5t2 254t2 305.5t1 309h-169q-92 0 -165 27.5t-120 87.5q-23 29 -38 58.5t-25.5 66.5t-14.5 83t-4 105zM252 1047q0 -96 9 -145.5t28 -82.5q49 -80 160 -80h126q0 201 -1 319t-4 182.5 t-8 89t-13 40.5q-20 47 -62 47h-38q-45 0 -84 -15.5t-64 -49.5q-12 -16 -21.5 -41t-15.5 -61t-9 -86t-3 -117z" />
<glyph unicode="&#xb7;" horiz-adv-x="442" d="M86 676q0 68 37 112t96 44q61 0 98 -44t37 -112q0 -70 -37 -112.5t-98 -42.5q-59 0 -96 43t-37 112z" />
<glyph unicode="&#xb8;" horiz-adv-x="391" d="M66 -205q0 51 35.5 89t95.5 38q57 0 93 -36.5t36 -102.5q0 -104 -55.5 -173t-135.5 -85l-18 43q55 23 77.5 46.5t28.5 51.5q-16 -8 -39 -8q-51 0 -84.5 35t-33.5 102z" />
<glyph unicode="&#xb9;" horiz-adv-x="323" d="M43 705v73h29q16 0 20 23q0 8 1 22.5t2 49t2 94t1 155.5v148.5t-4 101.5h-51v74q37 4 67.5 27.5t34.5 64.5h76q-2 -49 -2 -158.5v-257.5q0 -90 1 -147t2 -92t3 -54.5t4 -31.5q4 -6 10.5 -12.5t14.5 -6.5h25v-73h-236z" />
<glyph unicode="&#xba;" horiz-adv-x="546" d="M49 1214q0 94 19.5 156t51.5 98.5t71.5 51t80.5 14.5q63 0 106.5 -29.5t68 -76t35 -103.5t10.5 -113q0 -88 -19.5 -148t-50.5 -97t-71 -52.5t-79 -15.5q-41 0 -80.5 13.5t-71.5 48t-51.5 96t-19.5 157.5zM51 705v141q68 -10 128.5 -15.5t117.5 -5.5q102 0 197 21v-141 q-51 8 -101.5 11t-103.5 3q-59 0 -118.5 -3t-119.5 -11zM199 1214q0 -61 2 -100t5 -61.5t8 -31.5t9 -15q14 -23 49 -23q23 0 43 23q6 4 10.5 13t7.5 31.5t4 61.5t1 102q0 66 -1 106t-4 62.5t-7 31.5t-11 13q-20 27 -43 27q-29 0 -43 -14q-6 -8 -12 -18.5t-10 -34t-6 -64.5 t-2 -109z" />
<glyph unicode="&#xbb;" horiz-adv-x="784" d="M35 371v180l239 139l-239 150v170l321 -217v-205zM426 371v180l239 139l-239 150v170l321 -217v-205z" />
<glyph unicode="&#xbc;" horiz-adv-x="1243" d="M51 0q57 80 140 204t178.5 268t193.5 298t184 294t154 257t102 188h189q-61 -80 -146.5 -203.5t-179.5 -268t-190.5 -299t-181.5 -295t-152.5 -257t-102.5 -186.5h-188zM152 705v73h29q16 0 20 23q0 8 1 22.5t2 49t2 94t1 155.5v148.5t-4 101.5h-51v74q37 4 67.5 27.5 t34.5 64.5h76q-2 -49 -2 -158.5v-257.5q0 -90 1 -147t2 -92t3 -54.5t4 -31.5q4 -6 10.5 -12.5t14.5 -6.5h25v-73h-236zM768 338q68 215 89 383h110q-8 -31 -16 -58.5t-16.5 -61.5t-17.5 -79t-19 -108h106l2 180q0 80 -3 131t-7 88h180v-74h-25q-16 0 -21 -30.5t-7 -126.5 l-2 -168h67v-76h-67l-2 -191q-2 -57 4 -75.5t31 -18.5h22v-73h-250v73h47q18 0 24.5 23.5t6.5 70.5v191h-236z" />
<glyph unicode="&#xbd;" horiz-adv-x="1243" d="M51 0q57 80 140 204t178.5 268t193.5 298t184 294t154 257t102 188h189q-61 -80 -146.5 -203.5t-179.5 -268t-190.5 -299t-181.5 -295t-152.5 -257t-102.5 -186.5h-188zM152 705v73h29q16 0 20 23q0 8 1 22.5t2 49t2 94t1 155.5v148.5t-4 101.5h-51v74q37 4 67.5 27.5 t34.5 64.5h76q-2 -49 -2 -158.5v-257.5q0 -90 1 -147t2 -92t3 -54.5t4 -31.5q4 -6 10.5 -12.5t14.5 -6.5h25v-73h-236zM801 -18v100q0 74 11.5 123t33 85t52 62.5t69.5 57.5q92 74 92 206q0 63 -24.5 99.5t-65.5 36.5t-45 -13q43 -27 43 -82q0 -37 -23.5 -63.5t-58.5 -26.5 t-59.5 25.5t-24.5 60.5q0 78 48 126t126 48q96 0 149.5 -56t53.5 -167q0 -84 -36 -142.5t-113 -111.5q-37 -27 -58.5 -50.5t-34 -51t-15.5 -64.5t-3 -88v-33h170q20 0 20 60h66v-141h-373z" />
<glyph unicode="&#xbe;" horiz-adv-x="1243" d="M51 0q57 80 140 204t178.5 268t193.5 298t184 294t154 257t102 188h189q-61 -80 -146.5 -203.5t-179.5 -268t-190.5 -299t-181.5 -295t-152.5 -257t-102.5 -186.5h-188zM53 866q0 33 24.5 59.5t57.5 26.5q37 0 60.5 -27.5t23.5 -62.5q0 -63 -43 -84q8 -12 43 -12 q25 0 39 7t25 22q4 6 9 14t8 24.5t5 44t2 70.5q0 98 -13.5 134t-58.5 36h-61v64h61q35 0 47.5 27.5t12.5 123.5q0 53 -5 83t-15.5 43.5t-24 15.5t-27.5 2q-29 0 -41 -13q43 -27 43 -82q0 -37 -24.5 -63.5t-57.5 -26.5q-37 0 -60.5 25.5t-23.5 66.5q0 72 46 118t135 46 q86 0 135 -54t49 -155q0 -78 -16.5 -124t-59.5 -68q43 -29 67.5 -77t24.5 -130q0 -51 -13 -97t-40 -80t-67 -53.5t-93 -19.5q-78 0 -126 48t-48 128zM768 338q68 215 89 383h110q-8 -31 -16 -58.5t-16.5 -61.5t-17.5 -79t-19 -108h106l2 180q0 80 -3 131t-7 88h180v-74h-25 q-16 0 -21 -30.5t-7 -126.5l-2 -168h67v-76h-67l-2 -191q-2 -57 4 -75.5t31 -18.5h22v-73h-250v73h47q18 0 24.5 23.5t6.5 70.5v191h-236z" />
<glyph unicode="&#xbf;" horiz-adv-x="716" d="M33 -43q0 90 31.5 157.5t80 121t103.5 95.5t103 81t80 77.5t32 88.5q0 57 -34 86.5t-77 33.5v47q39 0 73 -13t58.5 -37.5t39 -58.5t14.5 -73q0 -49 -13.5 -87t-38.5 -66q-41 -53 -94 -96.5t-100 -104.5q-31 -45 -51.5 -104.5t-20.5 -143.5q0 -150 48 -211t134 -61 q33 0 71 13t42 48q-94 37 -94 141q0 57 38 101.5t95 44.5t95 -43t38 -109q0 -63 -22.5 -115.5t-62.5 -90t-95 -59t-123 -21.5q-166 0 -258 81.5t-92 276.5zM274 995q0 68 37.5 112t98.5 44q59 0 96 -44t37 -112q0 -70 -37 -112.5t-96 -42.5q-61 0 -98.5 43t-37.5 112z" />
<glyph unicode="&#xc0;" horiz-adv-x="1040" d="M31 -283h24q51 0 66 60q10 33 31.5 142.5t50 264t61.5 339t63.5 365.5t57.5 345t43 276h201q18 -162 47 -355t62.5 -394t70.5 -396.5t72 -361.5q18 -90 29.5 -141t18.5 -78t11 -36t8 -13q8 -10 17.5 -13.5t29.5 -3.5h21v-94h-432v94h24q74 0 74 37q0 29 -7 93.5 t-22 148.5h-397l-33 -205q-2 -12 -2 -20.5v-18.5q0 -23 17.5 -29t52.5 -6h26v-94h-286v94zM199 1923h235l189 -321h-185zM270 88h371l-166 1100q-4 -20 -19.5 -101t-37 -195t-46 -244t-46 -245.5t-37 -201.5t-19.5 -113z" />
<glyph unicode="&#xc1;" horiz-adv-x="1040" d="M31 -283h24q51 0 66 60q10 33 31.5 142.5t50 264t61.5 339t63.5 365.5t57.5 345t43 276h201q18 -162 47 -355t62.5 -394t70.5 -396.5t72 -361.5q18 -90 29.5 -141t18.5 -78t11 -36t8 -13q8 -10 17.5 -13.5t29.5 -3.5h21v-94h-432v94h24q74 0 74 37q0 29 -7 93.5 t-22 148.5h-397l-33 -205q-2 -12 -2 -20.5v-18.5q0 -23 17.5 -29t52.5 -6h26v-94h-286v94zM270 88h371l-166 1100q-4 -20 -19.5 -101t-37 -195t-46 -244t-46 -245.5t-37 -201.5t-19.5 -113zM392 1602l190 321h234l-238 -321h-186z" />
<glyph unicode="&#xc2;" horiz-adv-x="1040" d="M31 -283h24q51 0 66 60q10 33 31.5 142.5t50 264t61.5 339t63.5 365.5t57.5 345t43 276h201q18 -162 47 -355t62.5 -394t70.5 -396.5t72 -361.5q18 -90 29.5 -141t18.5 -78t11 -36t8 -13q8 -10 17.5 -13.5t29.5 -3.5h21v-94h-432v94h24q74 0 74 37q0 29 -7 93.5 t-22 148.5h-397l-33 -205q-2 -12 -2 -20.5v-18.5q0 -23 17.5 -29t52.5 -6h26v-94h-286v94zM198 1602l217 321h205l217 -321h-170l-149 198l-148 -198h-172zM270 88h371l-166 1100q-4 -20 -19.5 -101t-37 -195t-46 -244t-46 -245.5t-37 -201.5t-19.5 -113z" />
<glyph unicode="&#xc3;" horiz-adv-x="1040" d="M31 -283h24q51 0 66 60q10 33 31.5 142.5t50 264t61.5 339t63.5 365.5t57.5 345t43 276h201q18 -162 47 -355t62.5 -394t70.5 -396.5t72 -361.5q18 -90 29.5 -141t18.5 -78t11 -36t8 -13q8 -10 17.5 -13.5t29.5 -3.5h21v-94h-432v94h24q74 0 74 37q0 29 -7 93.5 t-22 148.5h-397l-33 -205q-2 -12 -2 -20.5v-18.5q0 -23 17.5 -29t52.5 -6h26v-94h-286v94zM201 1761q35 49 92 87t106 38q37 0 68 -15t59.5 -33.5t56 -34t58.5 -15.5q41 0 84 29.5t74 64.5l36 -129q-12 -20 -34.5 -37.5t-47 -31t-50 -21.5t-46.5 -8q-37 0 -69.5 15.5 t-63.5 34t-59.5 33.5t-59.5 15q-43 0 -88 -34.5t-80 -84.5zM270 88h371l-166 1100q-4 -20 -19.5 -101t-37 -195t-46 -244t-46 -245.5t-37 -201.5t-19.5 -113z" />
<glyph unicode="&#xc4;" horiz-adv-x="1040" d="M31 -283h24q51 0 66 60q10 33 31.5 142.5t50 264t61.5 339t63.5 365.5t57.5 345t43 276h201q18 -162 47 -355t62.5 -394t70.5 -396.5t72 -361.5q18 -90 29.5 -141t18.5 -78t11 -36t8 -13q8 -10 17.5 -13.5t29.5 -3.5h21v-94h-432v94h24q74 0 74 37q0 29 -7 93.5 t-22 148.5h-397l-33 -205q-2 -12 -2 -20.5v-18.5q0 -23 17.5 -29t52.5 -6h26v-94h-286v94zM207 1833q0 66 36 108t95 42t96 -42t37 -108t-37 -105.5t-96 -39.5t-95 40t-36 105zM270 88h371l-166 1100q-4 -20 -19.5 -101t-37 -195t-46 -244t-46 -245.5t-37 -201.5t-19.5 -113 zM567 1833q0 66 37 108t97 42q59 0 95 -42t36 -108t-36 -105.5t-95 -39.5t-96.5 40t-37.5 105z" />
<glyph unicode="&#xc5;" horiz-adv-x="1040" d="M31 -283h24q51 0 66 60q10 33 31.5 142.5t50 264t61.5 339t63.5 365.5t57.5 345t43 276h201q18 -162 47 -355t62.5 -394t70.5 -396.5t72 -361.5q18 -90 29.5 -141t18.5 -78t11 -36t8 -13q8 -10 17.5 -13.5t29.5 -3.5h21v-94h-432v94h24q74 0 74 37q0 29 -7 93.5 t-22 148.5h-397l-33 -205q-2 -12 -2 -20.5v-18.5q0 -23 17.5 -29t52.5 -6h26v-94h-286v94zM270 88h371l-166 1100q-4 -20 -19.5 -101t-37 -195t-46 -244t-46 -245.5t-37 -201.5t-19.5 -113zM301 1741q0 37 17 69.5t47 58.5t69 40t84 14q43 0 83 -14t70.5 -39t48 -57.5 t17.5 -71.5q0 -84 -65.5 -132t-153.5 -48q-94 0 -155.5 51t-61.5 129zM448 1733q0 -115 70 -115q33 0 53 27t20 88q0 59 -20 90t-53 31q-70 0 -70 -121z" />
<glyph unicode="&#xc6;" horiz-adv-x="1409" d="M31 -283h24q51 0 66 60q10 33 31.5 142.5t50 264t61.5 339t63.5 365.5t57.5 345t43 276h696v-213h-88q0 121 -57 121h-219q-74 0 -74 -28q0 -139 13.5 -301t29.5 -324h152q70 0 69 121h86v-336h-86q0 125 -69 125h-144q16 -180 36 -352t40 -320l29 -201q6 -35 18 -46 t35 -11h358q29 0 43.5 26.5t14.5 86.5h84v-234h-908l7 94h26q76 0 76 37q0 35 -1 98.5t-7 143.5h-332l-33 -205q-2 -12 -2 -20.5v-18.5q0 -23 17.5 -29t52.5 -6h26v-94h-286v94zM270 88h312l-88 1208q-8 -47 -28 -147t-42.5 -225t-48 -261.5t-48 -255t-38 -205.5t-19.5 -114 z" />
<glyph unicode="&#xc7;" horiz-adv-x="915" d="M51 745q0 119 4 207t14.5 155t31 119t51.5 103q59 94 154 148.5t233 54.5q80 0 143 -21.5t108.5 -59.5t70 -88.5t24.5 -107.5q0 -59 -38 -108t-97 -49q-115 0 -115 137q0 59 14.5 91t65.5 54q-51 59 -170 60q-127 0 -201 -92q-20 -25 -34.5 -61t-24 -100.5t-14.5 -166.5 t-5 -262q0 -154 6.5 -255.5t16.5 -166t22.5 -99t26.5 -55.5q43 -59 91 -84.5t128 -25.5q193 0 242 172l65 -29q-37 -129 -116.5 -182t-206.5 -53q-117 0 -208 41.5t-153 119.5q-33 41 -56.5 90.5t-39.5 119t-24.5 164.5t-8.5 230zM365 -205q0 51 35.5 89t93.5 38 q59 0 95 -36.5t36 -102.5q0 -104 -56.5 -173t-136.5 -85l-16 43q53 23 76.5 46.5t29.5 51.5q-16 -8 -39 -8q-51 0 -84.5 35t-33.5 102z" />
<glyph unicode="&#xc8;" horiz-adv-x="1001" d="M39 -283h27q35 0 52 13.5t21 62.5q4 94 5 218t1 278v354.5v251.5t-1 172t-2 115t-3 82.5t-4 74.5q-4 41 -17.5 59.5t-45.5 18.5h-33v92h676v-213h-86q0 121 -58 121h-145q-47 0 -62.5 -9t-21.5 -54q-4 -51 -8 -195.5t-6 -394.5h143q70 0 70 121h88v-336h-88 q0 125 -70 125h-145v-191q0 -279 3 -452.5t13 -243.5q4 -25 23.5 -34t60.5 -9h418q29 0 43 26.5t14 86.5h86v-234h-948v94zM95 1923h235l189 -321h-185z" />
<glyph unicode="&#xc9;" horiz-adv-x="1001" d="M39 -283h27q35 0 52 13.5t21 62.5q4 94 5 218t1 278v354.5v251.5t-1 172t-2 115t-3 82.5t-4 74.5q-4 41 -17.5 59.5t-45.5 18.5h-33v92h676v-213h-86q0 121 -58 121h-145q-47 0 -62.5 -9t-21.5 -54q-4 -51 -8 -195.5t-6 -394.5h143q70 0 70 121h88v-336h-88 q0 125 -70 125h-145v-191q0 -279 3 -452.5t13 -243.5q4 -25 23.5 -34t60.5 -9h418q29 0 43 26.5t14 86.5h86v-234h-948v94zM287 1602l190 321h234l-238 -321h-186z" />
<glyph unicode="&#xca;" horiz-adv-x="1001" d="M39 -283h27q35 0 52 13.5t21 62.5q4 94 5 218t1 278v354.5v251.5t-1 172t-2 115t-3 82.5t-4 74.5q-4 41 -17.5 59.5t-45.5 18.5h-33v92h676v-213h-86q0 121 -58 121h-145q-47 0 -62.5 -9t-21.5 -54q-4 -51 -8 -195.5t-6 -394.5h143q70 0 70 121h88v-336h-88 q0 125 -70 125h-145v-191q0 -279 3 -452.5t13 -243.5q4 -25 23.5 -34t60.5 -9h418q29 0 43 26.5t14 86.5h86v-234h-948v94zM94 1602l217 321h205l217 -321h-170l-149 198l-148 -198h-172z" />
<glyph unicode="&#xcb;" horiz-adv-x="1001" d="M39 -283h27q35 0 52 13.5t21 62.5q4 94 5 218t1 278v354.5v251.5t-1 172t-2 115t-3 82.5t-4 74.5q-4 41 -17.5 59.5t-45.5 18.5h-33v92h676v-213h-86q0 121 -58 121h-145q-47 0 -62.5 -9t-21.5 -54q-4 -51 -8 -195.5t-6 -394.5h143q70 0 70 121h88v-336h-88 q0 125 -70 125h-145v-191q0 -279 3 -452.5t13 -243.5q4 -25 23.5 -34t60.5 -9h418q29 0 43 26.5t14 86.5h86v-234h-948v94zM102 1833q0 66 36 108t95 42t96 -42t37 -108t-37 -105.5t-96 -39.5t-95 40t-36 105zM462 1833q0 66 37 108t97 42q59 0 95 -42t36 -108t-36 -105.5 t-95 -39.5t-96.5 40t-37.5 105z" />
<glyph unicode="&#xcc;" horiz-adv-x="468" d="M-81 1923h235l189 -321h-185zM39 -283h33q29 0 39 7.5t16 29.5q2 8 4 59.5t4 129t3 174t2 197t1 193.5v167q0 98 -1 215t-2 221t-4 180t-7 88q-6 23 -16.5 31t-38.5 8h-33v92h391v-92h-35q-27 0 -37 -8t-18 -31q-4 -12 -6 -88t-4 -180t-2 -221v-215v-166t1 -194.5t2 -197 t2 -174t3 -129t4 -59.5q8 -23 18.5 -30t36.5 -7h35v-94h-391v94z" />
<glyph unicode="&#xcd;" horiz-adv-x="468" d="M39 -283h33q29 0 39 7.5t16 29.5q2 8 4 59.5t4 129t3 174t2 197t1 193.5v167q0 98 -1 215t-2 221t-4 180t-7 88q-6 23 -16.5 31t-38.5 8h-33v92h391v-92h-35q-27 0 -37 -8t-18 -31q-4 -12 -6 -88t-4 -180t-2 -221v-215v-166t1 -194.5t2 -197t2 -174t3 -129t4 -59.5 q8 -23 18.5 -30t36.5 -7h35v-94h-391v94zM107 1602l190 321h234l-238 -321h-186z" />
<glyph unicode="&#xce;" horiz-adv-x="468" d="M-84 1602l217 321h205l217 -321h-170l-149 198l-148 -198h-172zM39 -283h33q29 0 39 7.5t16 29.5q2 8 4 59.5t4 129t3 174t2 197t1 193.5v167q0 98 -1 215t-2 221t-4 180t-7 88q-6 23 -16.5 31t-38.5 8h-33v92h391v-92h-35q-27 0 -37 -8t-18 -31q-4 -12 -6 -88t-4 -180 t-2 -221v-215v-166t1 -194.5t2 -197t2 -174t3 -129t4 -59.5q8 -23 18.5 -30t36.5 -7h35v-94h-391v94z" />
<glyph unicode="&#xcf;" horiz-adv-x="468" d="M-76 1833q0 66 36 108t95 42t96 -42t37 -108t-37 -105.5t-96 -39.5t-95 40t-36 105zM39 -283h33q29 0 39 7.5t16 29.5q2 8 4 59.5t4 129t3 174t2 197t1 193.5v167q0 98 -1 215t-2 221t-4 180t-7 88q-6 23 -16.5 31t-38.5 8h-33v92h391v-92h-35q-27 0 -37 -8t-18 -31 q-4 -12 -6 -88t-4 -180t-2 -221v-215v-166t1 -194.5t2 -197t2 -174t3 -129t4 -59.5q8 -23 18.5 -30t36.5 -7h35v-94h-391v94zM284 1833q0 66 37 108t97 42q59 0 95 -42t36 -108t-36 -105.5t-95 -39.5t-96.5 40t-37.5 105z" />
<glyph unicode="&#xd0;" horiz-adv-x="1089" d="M37 674v90h108q0 166 -3 276.5t-6 181t-7 108.5t-6 59q-4 18 -19.5 23t-42.5 5h-22v92h618q80 0 150 -37.5t119 -111.5q29 -45 50 -104.5t35.5 -149.5t21.5 -219t7 -309q0 -184 -8 -314.5t-23.5 -222.5t-38 -153.5t-50.5 -104.5q-55 -84 -132 -122t-174 -38h-575v94h20 q18 0 32.5 7.5t24 35t15.5 85t9 156.5t4 248.5t1 364.5v60h-108zM326 314.5q0 -138.5 1 -226.5t2 -138t5 -93q6 -80 22.5 -110t67.5 -30h127q61 0 112.5 25t88.5 84q18 27 31.5 69t23.5 118.5t15 202.5t5 323q0 193 -4 318.5t-12 206.5t-20.5 127t-26.5 79q-35 78 -87 112.5 t-124 34.5h-141q-29 0 -47.5 -14t-22.5 -49q-4 -25 -6 -61t-5 -100.5t-4 -166.5t-1 -262h166q72 0 71 121h86v-336h-86q0 125 -71 125h-166v-359.5z" />
<glyph unicode="&#xd1;" horiz-adv-x="1003" d="M39 -283h20q16 0 27.5 4.5t24.5 24.5q6 10 12 23.5t9 45t5 87t4 150.5t2 236.5v344.5q0 240 -1 382t-4 221t-6 108.5t-9 44.5q-6 16 -14.5 22t-30.5 6h-39v92h311q100 -377 211 -740t225 -697q4 180 6.5 340.5t2.5 310.5q0 221 -2 350t-5.5 196.5t-8.5 91t-11 34.5 q-8 16 -16.5 19t-20.5 3h-43v92h305v-92h-18q-47 0 -64 -22q-6 -8 -10 -19.5t-7 -37t-5 -70.5t-3 -120t-1 -187.5v-270.5q0 -276 1 -459.5t3 -301t5 -187.5t7 -119h-213q-18 74 -50 195t-71 266t-84 303t-89 305.5t-85 273.5t-71 205q0 -20 -1 -72t-2.5 -154.5t-1.5 -262.5 v-393q0 -176 1.5 -276.5t4.5 -154t7 -72.5t12 -36q10 -20 23.5 -26.5t40.5 -6.5h20v-94h-303v94zM183 1761q35 49 92 87t106 38q37 0 68 -15t59.5 -33.5t56 -34t58.5 -15.5q41 0 84 29.5t74 64.5l36 -129q-12 -20 -34.5 -37.5t-47 -31t-50 -21.5t-46.5 -8q-37 0 -69.5 15.5 t-63.5 34t-59.5 33.5t-59.5 15q-43 0 -88 -34.5t-80 -84.5z" />
<glyph unicode="&#xd2;" horiz-adv-x="1083" d="M51 530q0 217 8.5 364.5t26.5 248t48 162t73 104.5q55 59 136 91t192 32q119 0 204.5 -35t145.5 -96q41 -43 68.5 -103.5t45 -160t25.5 -247t8 -362.5q0 -209 -8 -347t-25.5 -227t-43 -140.5t-60.5 -87.5q-123 -127 -334 -127q-127 0 -217 32.5t-149 92.5q-37 37 -65 89 t-45 141t-25.5 227t-8.5 349zM224 1923h235l189 -321h-185zM264 530q0 -225 4 -360t12.5 -212t20.5 -109.5t29 -53.5q37 -47 90 -74.5t123 -27.5q74 0 132 33.5t93 95.5q12 20 21.5 51t15.5 102.5t9 202.5t3 350q0 242 -4 388.5t-12 230.5t-21.5 123t-29.5 63 q-35 51 -86.5 79t-120.5 28q-137 0 -211 -109q-16 -25 -29.5 -62.5t-22 -121.5t-12.5 -230.5t-4 -386.5z" />
<glyph unicode="&#xd3;" horiz-adv-x="1083" d="M51 530q0 217 8.5 364.5t26.5 248t48 162t73 104.5q55 59 136 91t192 32q119 0 204.5 -35t145.5 -96q41 -43 68.5 -103.5t45 -160t25.5 -247t8 -362.5q0 -209 -8 -347t-25.5 -227t-43 -140.5t-60.5 -87.5q-123 -127 -334 -127q-127 0 -217 32.5t-149 92.5q-37 37 -65 89 t-45 141t-25.5 227t-8.5 349zM264 530q0 -225 4 -360t12.5 -212t20.5 -109.5t29 -53.5q37 -47 90 -74.5t123 -27.5q74 0 132 33.5t93 95.5q12 20 21.5 51t15.5 102.5t9 202.5t3 350q0 242 -4 388.5t-12 230.5t-21.5 123t-29.5 63q-35 51 -86.5 79t-120.5 28 q-137 0 -211 -109q-16 -25 -29.5 -62.5t-22 -121.5t-12.5 -230.5t-4 -386.5zM414 1602l190 321h234l-238 -321h-186z" />
<glyph unicode="&#xd4;" horiz-adv-x="1083" d="M51 530q0 217 8.5 364.5t26.5 248t48 162t73 104.5q55 59 136 91t192 32q119 0 204.5 -35t145.5 -96q41 -43 68.5 -103.5t45 -160t25.5 -247t8 -362.5q0 -209 -8 -347t-25.5 -227t-43 -140.5t-60.5 -87.5q-123 -127 -334 -127q-127 0 -217 32.5t-149 92.5q-37 37 -65 89 t-45 141t-25.5 227t-8.5 349zM221 1602l217 321h205l217 -321h-170l-149 198l-148 -198h-172zM264 530q0 -225 4 -360t12.5 -212t20.5 -109.5t29 -53.5q37 -47 90 -74.5t123 -27.5q74 0 132 33.5t93 95.5q12 20 21.5 51t15.5 102.5t9 202.5t3 350q0 242 -4 388.5t-12 230.5 t-21.5 123t-29.5 63q-35 51 -86.5 79t-120.5 28q-137 0 -211 -109q-16 -25 -29.5 -62.5t-22 -121.5t-12.5 -230.5t-4 -386.5z" />
<glyph unicode="&#xd5;" horiz-adv-x="1083" d="M51 530q0 217 8.5 364.5t26.5 248t48 162t73 104.5q55 59 136 91t192 32q119 0 204.5 -35t145.5 -96q41 -43 68.5 -103.5t45 -160t25.5 -247t8 -362.5q0 -209 -8 -347t-25.5 -227t-43 -140.5t-60.5 -87.5q-123 -127 -334 -127q-127 0 -217 32.5t-149 92.5q-37 37 -65 89 t-45 141t-25.5 227t-8.5 349zM224 1761q35 49 92 87t106 38q37 0 68 -15t59.5 -33.5t56 -34t58.5 -15.5q41 0 84 29.5t74 64.5l36 -129q-12 -20 -34.5 -37.5t-47 -31t-50 -21.5t-46.5 -8q-37 0 -69.5 15.5t-63.5 34t-59.5 33.5t-59.5 15q-43 0 -88 -34.5t-80 -84.5zM264 530 q0 -225 4 -360t12.5 -212t20.5 -109.5t29 -53.5q37 -47 90 -74.5t123 -27.5q74 0 132 33.5t93 95.5q12 20 21.5 51t15.5 102.5t9 202.5t3 350q0 242 -4 388.5t-12 230.5t-21.5 123t-29.5 63q-35 51 -86.5 79t-120.5 28q-137 0 -211 -109q-16 -25 -29.5 -62.5t-22 -121.5 t-12.5 -230.5t-4 -386.5z" />
<glyph unicode="&#xd6;" horiz-adv-x="1083" d="M51 530q0 217 8.5 364.5t26.5 248t48 162t73 104.5q55 59 136 91t192 32q119 0 204.5 -35t145.5 -96q41 -43 68.5 -103.5t45 -160t25.5 -247t8 -362.5q0 -209 -8 -347t-25.5 -227t-43 -140.5t-60.5 -87.5q-123 -127 -334 -127q-127 0 -217 32.5t-149 92.5q-37 37 -65 89 t-45 141t-25.5 227t-8.5 349zM229 1833q0 66 36 108t95 42t96 -42t37 -108t-37 -105.5t-96 -39.5t-95 40t-36 105zM264 530q0 -225 4 -360t12.5 -212t20.5 -109.5t29 -53.5q37 -47 90 -74.5t123 -27.5q74 0 132 33.5t93 95.5q12 20 21.5 51t15.5 102.5t9 202.5t3 350 q0 242 -4 388.5t-12 230.5t-21.5 123t-29.5 63q-35 51 -86.5 79t-120.5 28q-137 0 -211 -109q-16 -25 -29.5 -62.5t-22 -121.5t-12.5 -230.5t-4 -386.5zM589 1833q0 66 37 108t97 42q59 0 95 -42t36 -108t-36 -105.5t-95 -39.5t-96.5 40t-37.5 105z" />
<glyph unicode="&#xd7;" horiz-adv-x="872" d="M109 494l243 245l-243 242l86 84l241 -244l244 244l82 -84l-242 -242l244 -245l-84 -82l-244 241l-243 -241z" />
<glyph unicode="&#xd8;" horiz-adv-x="1083" d="M51 530q0 217 8.5 364.5t26.5 248t48 162t73 104.5q55 59 136 91t192 32q72 0 132 -14.5t109 -36.5q14 47 25.5 91t21.5 83h205l-119 -285q33 -43 56.5 -106.5t39 -160.5t21.5 -237.5t6 -337.5q0 -209 -8 -347t-25.5 -227t-43 -140.5t-60.5 -87.5q-123 -127 -334 -127 q-84 0 -150.5 14t-119.5 39q-10 -31 -17.5 -62.5t-15.5 -64.5h-205l103 244q-29 39 -48.5 94t-32 143t-18.5 215t-6 309zM264 530q0 -166 2 -280.5t6 -192.5q61 160 126 331t126.5 339t115.5 327.5t97 295.5q-72 90 -194 90q-137 0 -211 -109q-16 -25 -29.5 -62.5 t-22 -121.5t-12.5 -230.5t-4 -386.5zM332 -209q37 -45 91 -71.5t120 -26.5q74 0 132 33.5t93 95.5q12 20 21.5 51t15.5 102.5t9 202.5t3 350q0 217 -3 356.5t-11 225.5q-147 -369 -264 -695.5t-207 -623.5z" />
<glyph unicode="&#xd9;" horiz-adv-x="1079" d="M31 1417v92h409v-92h-26q-43 0 -60 -43q-8 -20 -13 -44.5t-7 -71t-3 -123t-1 -205.5q0 -66 -2 -242t-2 -424q0 -119 3 -192.5t8 -120.5t14 -76t22 -55q31 -70 82 -98.5t129 -28.5q66 0 110.5 16.5t71.5 57.5q27 39 45 84t29.5 110.5t15.5 161.5t4 242q0 205 -1 344 t-3 238.5t-4 172t-4 144.5q-2 59 -5 83.5t-16 43.5q-23 27 -59 26h-23v92h306v-92h-27q-29 0 -47 -26q-8 -14 -13.5 -31t-8.5 -44.5t-4 -71.5t-1 -114q0 -61 1 -169.5t3 -239.5t3 -269.5t1 -256.5q0 -166 -21.5 -287t-74.5 -193q-43 -59 -112.5 -87.5t-186.5 -28.5 q-113 0 -203 33.5t-147 111.5q-25 33 -42 69.5t-28.5 83t-16.5 106.5t-5 144q0 197 4 403t4 451v164t-1 103t-3 61.5t-6 40.5q-6 27 -17.5 37t-46.5 10h-24zM263 1923h235l189 -321h-185z" />
<glyph unicode="&#xda;" horiz-adv-x="1079" d="M31 1417v92h409v-92h-26q-43 0 -60 -43q-8 -20 -13 -44.5t-7 -71t-3 -123t-1 -205.5q0 -66 -2 -242t-2 -424q0 -119 3 -192.5t8 -120.5t14 -76t22 -55q31 -70 82 -98.5t129 -28.5q66 0 110.5 16.5t71.5 57.5q27 39 45 84t29.5 110.5t15.5 161.5t4 242q0 205 -1 344 t-3 238.5t-4 172t-4 144.5q-2 59 -5 83.5t-16 43.5q-23 27 -59 26h-23v92h306v-92h-27q-29 0 -47 -26q-8 -14 -13.5 -31t-8.5 -44.5t-4 -71.5t-1 -114q0 -61 1 -169.5t3 -239.5t3 -269.5t1 -256.5q0 -166 -21.5 -287t-74.5 -193q-43 -59 -112.5 -87.5t-186.5 -28.5 q-113 0 -203 33.5t-147 111.5q-25 33 -42 69.5t-28.5 83t-16.5 106.5t-5 144q0 197 4 403t4 451v164t-1 103t-3 61.5t-6 40.5q-6 27 -17.5 37t-46.5 10h-24zM455 1602l190 321h234l-238 -321h-186z" />
<glyph unicode="&#xdb;" horiz-adv-x="1079" d="M31 1417v92h409v-92h-26q-43 0 -60 -43q-8 -20 -13 -44.5t-7 -71t-3 -123t-1 -205.5q0 -66 -2 -242t-2 -424q0 -119 3 -192.5t8 -120.5t14 -76t22 -55q31 -70 82 -98.5t129 -28.5q66 0 110.5 16.5t71.5 57.5q27 39 45 84t29.5 110.5t15.5 161.5t4 242q0 205 -1 344 t-3 238.5t-4 172t-4 144.5q-2 59 -5 83.5t-16 43.5q-23 27 -59 26h-23v92h306v-92h-27q-29 0 -47 -26q-8 -14 -13.5 -31t-8.5 -44.5t-4 -71.5t-1 -114q0 -61 1 -169.5t3 -239.5t3 -269.5t1 -256.5q0 -166 -21.5 -287t-74.5 -193q-43 -59 -112.5 -87.5t-186.5 -28.5 q-113 0 -203 33.5t-147 111.5q-25 33 -42 69.5t-28.5 83t-16.5 106.5t-5 144q0 197 4 403t4 451v164t-1 103t-3 61.5t-6 40.5q-6 27 -17.5 37t-46.5 10h-24zM262 1602l217 321h205l217 -321h-170l-149 198l-148 -198h-172z" />
<glyph unicode="&#xdc;" horiz-adv-x="1079" d="M31 1417v92h409v-92h-26q-43 0 -60 -43q-8 -20 -13 -44.5t-7 -71t-3 -123t-1 -205.5q0 -66 -2 -242t-2 -424q0 -119 3 -192.5t8 -120.5t14 -76t22 -55q31 -70 82 -98.5t129 -28.5q66 0 110.5 16.5t71.5 57.5q27 39 45 84t29.5 110.5t15.5 161.5t4 242q0 205 -1 344 t-3 238.5t-4 172t-4 144.5q-2 59 -5 83.5t-16 43.5q-23 27 -59 26h-23v92h306v-92h-27q-29 0 -47 -26q-8 -14 -13.5 -31t-8.5 -44.5t-4 -71.5t-1 -114q0 -61 1 -169.5t3 -239.5t3 -269.5t1 -256.5q0 -166 -21.5 -287t-74.5 -193q-43 -59 -112.5 -87.5t-186.5 -28.5 q-113 0 -203 33.5t-147 111.5q-25 33 -42 69.5t-28.5 83t-16.5 106.5t-5 144q0 197 4 403t4 451v164t-1 103t-3 61.5t-6 40.5q-6 27 -17.5 37t-46.5 10h-24zM268 1833q0 66 36 108t95 42t96 -42t37 -108t-37 -105.5t-96 -39.5t-95 40t-36 105zM628 1833q0 66 37 108t97 42 q59 0 95 -42t36 -108t-36 -105.5t-95 -39.5t-96.5 40t-37.5 105z" />
<glyph unicode="&#xdd;" horiz-adv-x="1058" d="M14 1417v92h426v-92h-37q-59 0 -59 -39q0 -29 61.5 -188.5t180.5 -476.5q119 315 175 476t56 189q0 16 -10 27.5t-33 11.5h-47v92h317v-92h-16q-25 0 -40 -12t-38 -62q-35 -72 -75.5 -167t-83.5 -201.5t-87.5 -215t-82.5 -204.5v-254t-1.5 -196t-1.5 -148v-113 q0 -82 18.5 -104.5t68.5 -22.5h36v-94h-440v94h55q14 0 25.5 5.5t20 19.5t13.5 41t9 72q2 43 4 103t4 144t3 194t3 249q-29 82 -61.5 169t-73.5 185t-89 210t-108 245q-16 37 -30.5 50t-40.5 13h-21zM449 1602l190 321h234l-238 -321h-186z" />
<glyph unicode="&#xde;" horiz-adv-x="919" d="M35 -285h20q31 0 48.5 14.5t25.5 74t10 178t2 327.5q0 258 -1 441.5t-5 307.5t-11 196.5t-18.5 109.5t-29 47t-41.5 10v92h336l10 -92q-6 2 -25 2q-51 0 -59 -49t-8 -139q0 -59 4 -123.5t8 -122.5h207q174 0 262 -114.5t88 -323.5q0 -96 -23.5 -174t-69.5 -135.5 t-114.5 -88t-158.5 -30.5h-170q0 -139 2 -216t6 -114t7 -44t7 -9q12 -10 29.5 -17.5t54.5 -7.5v-92h-393v92zM322 217h124q98 0 148.5 66.5t50.5 181.5v164q0 121 -53 193.5t-146 72.5h-40q-35 0 -52.5 -43t-23.5 -127t-6 -212t-2 -296z" />
<glyph unicode="&#xdf;" horiz-adv-x="860" d="M18 0v94h33q20 0 33.5 8.5t22 39t11.5 90t3 161.5v71.5v143.5t-1 181.5t-1 185.5v156.5v97.5q0 188 93 279t267 91q158 0 239 -92t81 -274q0 -61 -3 -104.5t-8.5 -74t-14.5 -52t-21 -37.5q-37 -51 -101 -68q45 -25 80 -74t56.5 -112.5t32.5 -134t11 -136.5 q0 -90 -6 -152.5t-18 -105.5t-28.5 -72.5t-37.5 -50.5q-43 -47 -89 -63t-105 -16q-100 0 -174 65l41 72q18 -16 33.5 -21.5t54.5 -5.5q29 0 51 13.5t33 33.5q8 14 14 31.5t10 52.5t6 93.5t2 154.5q0 104 -4 167.5t-11 99.5t-15 53.5t-17 29.5q-29 41 -77 41h-54v78h56 q20 0 38.5 7t33 34t22.5 78t8 139q0 68 -2 113t-6 72.5t-9.5 43t-11.5 27.5q-16 27 -36.5 41t-53.5 14q-49 0 -80.5 -15t-50.5 -56q-14 -31 -21.5 -60.5t-11.5 -81t-5 -131.5t-1 -209q0 -49 1 -127.5t3 -171t3 -190.5t3.5 -187.5t3.5 -163t1 -114.5h-306z" />
<glyph unicode="&#xe0;" horiz-adv-x="876" d="M20 219q0 78 29 126t101 91q53 35 121.5 64.5t134.5 70.5q29 18 59.5 37t52.5 43q0 88 -6 138.5t-27 78.5q-18 29 -42.5 39.5t-71.5 10.5q-51 0 -84 -18.5t-39 -47.5q90 -33 90 -139q0 -57 -37 -99.5t-92 -42.5q-59 0 -96 38t-37 114q0 66 25.5 118t69.5 89t102.5 56.5 t121.5 19.5q74 0 134.5 -18.5t99.5 -63.5q25 -29 40 -66t23 -91t11.5 -132t3.5 -189v-141t2 -85t3 -49t5 -32q6 -29 16 -37t23 -8q35 0 35 56v67h81v-76q0 -66 -39.5 -111.5t-117.5 -45.5q-55 0 -95 36.5t-65 85.5q-41 -57 -99.5 -91.5t-142.5 -34.5q-147 0 -220 63t-73 176 zM97 1460h235l189 -321h-185zM221 229q0 -61 42 -99t106 -38q37 0 63.5 12.5t45 31t30.5 40t18 41.5v84t-1 95t-2 95.5t-1 83.5q-35 -51 -88 -84.5t-100 -68.5q-51 -39 -82 -78t-31 -115z" />
<glyph unicode="&#xe1;" horiz-adv-x="876" d="M20 219q0 78 29 126t101 91q53 35 121.5 64.5t134.5 70.5q29 18 59.5 37t52.5 43q0 88 -6 138.5t-27 78.5q-18 29 -42.5 39.5t-71.5 10.5q-51 0 -84 -18.5t-39 -47.5q90 -33 90 -139q0 -57 -37 -99.5t-92 -42.5q-59 0 -96 38t-37 114q0 66 25.5 118t69.5 89t102.5 56.5 t121.5 19.5q74 0 134.5 -18.5t99.5 -63.5q25 -29 40 -66t23 -91t11.5 -132t3.5 -189v-141t2 -85t3 -49t5 -32q6 -29 16 -37t23 -8q35 0 35 56v67h81v-76q0 -66 -39.5 -111.5t-117.5 -45.5q-55 0 -95 36.5t-65 85.5q-41 -57 -99.5 -91.5t-142.5 -34.5q-147 0 -220 63t-73 176 zM221 229q0 -61 42 -99t106 -38q37 0 63.5 12.5t45 31t30.5 40t18 41.5v84t-1 95t-2 95.5t-1 83.5q-35 -51 -88 -84.5t-100 -68.5q-51 -39 -82 -78t-31 -115zM289 1139l190 321h234l-238 -321h-186z" />
<glyph unicode="&#xe2;" horiz-adv-x="876" d="M20 219q0 78 29 126t101 91q53 35 121.5 64.5t134.5 70.5q29 18 59.5 37t52.5 43q0 88 -6 138.5t-27 78.5q-18 29 -42.5 39.5t-71.5 10.5q-51 0 -84 -18.5t-39 -47.5q90 -33 90 -139q0 -57 -37 -99.5t-92 -42.5q-59 0 -96 38t-37 114q0 66 25.5 118t69.5 89t102.5 56.5 t121.5 19.5q74 0 134.5 -18.5t99.5 -63.5q25 -29 40 -66t23 -91t11.5 -132t3.5 -189v-141t2 -85t3 -49t5 -32q6 -29 16 -37t23 -8q35 0 35 56v67h81v-76q0 -66 -39.5 -111.5t-117.5 -45.5q-55 0 -95 36.5t-65 85.5q-41 -57 -99.5 -91.5t-142.5 -34.5q-147 0 -220 63t-73 176 zM98 1139l217 321h205l217 -321h-170l-149 198l-148 -198h-172zM221 229q0 -61 42 -99t106 -38q37 0 63.5 12.5t45 31t30.5 40t18 41.5v84t-1 95t-2 95.5t-1 83.5q-35 -51 -88 -84.5t-100 -68.5q-51 -39 -82 -78t-31 -115z" />
<glyph unicode="&#xe3;" horiz-adv-x="876" d="M20 219q0 78 29 126t101 91q53 35 121.5 64.5t134.5 70.5q29 18 59.5 37t52.5 43q0 88 -6 138.5t-27 78.5q-18 29 -42.5 39.5t-71.5 10.5q-51 0 -84 -18.5t-39 -47.5q90 -33 90 -139q0 -57 -37 -99.5t-92 -42.5q-59 0 -96 38t-37 114q0 66 25.5 118t69.5 89t102.5 56.5 t121.5 19.5q74 0 134.5 -18.5t99.5 -63.5q25 -29 40 -66t23 -91t11.5 -132t3.5 -189v-141t2 -85t3 -49t5 -32q6 -29 16 -37t23 -8q35 0 35 56v67h81v-76q0 -66 -39.5 -111.5t-117.5 -45.5q-55 0 -95 36.5t-65 85.5q-41 -57 -99.5 -91.5t-142.5 -34.5q-147 0 -220 63t-73 176 zM99 1298q35 49 92 87t106 38q37 0 68 -15t59.5 -33.5t56 -34t58.5 -15.5q41 0 84 29.5t74 64.5l36 -129q-12 -20 -34.5 -37.5t-47 -31t-50 -21.5t-46.5 -8q-37 0 -69.5 15.5t-63.5 34t-59.5 33.5t-59.5 15q-43 0 -88 -34.5t-80 -84.5zM221 229q0 -61 42 -99t106 -38 q37 0 63.5 12.5t45 31t30.5 40t18 41.5v84t-1 95t-2 95.5t-1 83.5q-35 -51 -88 -84.5t-100 -68.5q-51 -39 -82 -78t-31 -115z" />
<glyph unicode="&#xe4;" horiz-adv-x="876" d="M20 219q0 78 29 126t101 91q53 35 121.5 64.5t134.5 70.5q29 18 59.5 37t52.5 43q0 88 -6 138.5t-27 78.5q-18 29 -42.5 39.5t-71.5 10.5q-51 0 -84 -18.5t-39 -47.5q90 -33 90 -139q0 -57 -37 -99.5t-92 -42.5q-59 0 -96 38t-37 114q0 66 25.5 118t69.5 89t102.5 56.5 t121.5 19.5q74 0 134.5 -18.5t99.5 -63.5q25 -29 40 -66t23 -91t11.5 -132t3.5 -189v-141t2 -85t3 -49t5 -32q6 -29 16 -37t23 -8q35 0 35 56v67h81v-76q0 -66 -39.5 -111.5t-117.5 -45.5q-55 0 -95 36.5t-65 85.5q-41 -57 -99.5 -91.5t-142.5 -34.5q-147 0 -220 63t-73 176 zM104 1370q0 66 36 108t95 42t96 -42t37 -108t-37 -105.5t-96 -39.5t-95 40t-36 105zM221 229q0 -61 42 -99t106 -38q37 0 63.5 12.5t45 31t30.5 40t18 41.5v84t-1 95t-2 95.5t-1 83.5q-35 -51 -88 -84.5t-100 -68.5q-51 -39 -82 -78t-31 -115zM464 1370q0 66 37 108t97 42 q59 0 95 -42t36 -108t-36 -105.5t-95 -39.5t-96.5 40t-37.5 105z" />
<glyph unicode="&#xe5;" horiz-adv-x="876" d="M20 219q0 78 29 126t101 91q53 35 121.5 64.5t134.5 70.5q29 18 59.5 37t52.5 43q0 88 -6 138.5t-27 78.5q-18 29 -42.5 39.5t-71.5 10.5q-51 0 -84 -18.5t-39 -47.5q90 -33 90 -139q0 -57 -37 -99.5t-92 -42.5q-59 0 -96 38t-37 114q0 66 25.5 118t69.5 89t102.5 56.5 t121.5 19.5q74 0 134.5 -18.5t99.5 -63.5q25 -29 40 -66t23 -91t11.5 -132t3.5 -189v-141t2 -85t3 -49t5 -32q6 -29 16 -37t23 -8q35 0 35 56v67h81v-76q0 -66 -39.5 -111.5t-117.5 -45.5q-55 0 -95 36.5t-65 85.5q-41 -57 -99.5 -91.5t-142.5 -34.5q-147 0 -220 63t-73 176 zM199 1278q0 37 17 69.5t47 58.5t69 40t84 14q43 0 83 -14t70.5 -39t48 -57.5t17.5 -71.5q0 -84 -65.5 -132t-153.5 -48q-94 0 -155.5 51t-61.5 129zM221 229q0 -61 42 -99t106 -38q37 0 63.5 12.5t45 31t30.5 40t18 41.5v84t-1 95t-2 95.5t-1 83.5q-35 -51 -88 -84.5 t-100 -68.5q-51 -39 -82 -78t-31 -115zM346 1270q0 -115 70 -115q33 0 53 27t20 88q0 59 -20 90t-53 31q-70 0 -70 -121z" />
<glyph unicode="&#xe6;" horiz-adv-x="1216" d="M20 219q0 78 29 126t101 91q53 35 121.5 64.5t134.5 70.5q29 18 59.5 37t52.5 43q0 88 -6 138.5t-27 78.5q-18 29 -42.5 39.5t-71.5 10.5q-51 0 -84 -18.5t-39 -47.5q90 -33 90 -139q0 -57 -37 -99.5t-92 -42.5q-59 0 -96 38t-37 114q0 66 25.5 118t69.5 89t102.5 56.5 t121.5 19.5q74 0 134.5 -18.5t99.5 -63.5q12 -16 16 -25q47 49 105.5 78t123.5 29q141 0 222.5 -72t81.5 -217q0 -31 -6.5 -54.5t-25 -44t-50 -39t-82.5 -40.5l-279 -123q0 -82 3 -134.5t9.5 -84t15.5 -50t19 -30.5q41 -47 92 -47q104 0 169 54t85 122l56 -13 q-78 -254 -310 -253q-88 0 -157.5 46t-116.5 124q-6 4 -8 14q-41 -78 -107.5 -131t-171.5 -53q-147 0 -220 63t-73 176zM221 229q0 -61 42.5 -99t105.5 -38q72 0 111.5 44t70.5 126q-27 88 -27 223v47.5t2 45.5q-16 -29 -37.5 -49.5t-47 -38t-53.5 -34t-54 -34.5 q-51 -39 -82 -78t-31 -115zM735 526l240 99q29 10 41 33.5t12 70.5q0 92 -31.5 138t-122.5 46q-31 0 -56 -15t-44 -40q-10 -12 -17 -28.5t-12.5 -52.5t-7.5 -95t-2 -156z" />
<glyph unicode="&#xe7;" horiz-adv-x="737" d="M43 483q0 166 31.5 266.5t91.5 159.5q45 47 103.5 72t123.5 25q80 0 137.5 -20.5t94.5 -57.5t54 -87t17 -108q0 -66 -37.5 -115t-93.5 -49q-59 0 -97 42t-38 102q0 53 25.5 94t72.5 51q-10 29 -39.5 49.5t-95.5 20.5q-29 0 -53.5 -15.5t-40.5 -38.5q-12 -14 -20.5 -34.5 t-14.5 -61.5t-8 -112.5t-2 -186.5q0 -98 2 -159.5t6 -99.5t11.5 -57.5t17.5 -31.5q49 -53 133 -53q86 0 146.5 51t76.5 119l55 -15q-78 -254 -309 -253q-70 0 -130 29.5t-107 82.5q-53 61 -83 152.5t-30 238.5zM261 -205q0 51 35.5 89t95.5 38q57 0 93 -36.5t36 -102.5 q0 -104 -55.5 -173t-135.5 -85l-18 43q55 23 77.5 46.5t28.5 51.5q-16 -8 -39 -8q-51 0 -84.5 35t-33.5 102z" />
<glyph unicode="&#xe8;" horiz-adv-x="735" d="M43 485q0 154 29.5 248t83.5 156q47 53 107.5 85t129.5 32q141 0 222 -72t81 -217q0 -31 -6 -54.5t-24.5 -44t-50 -39t-83.5 -40.5l-278 -123q0 -82 3 -134.5t9 -84t15.5 -50t19.5 -30.5q41 -47 92 -47q104 0 169 54t85 122l55 -13q-78 -254 -309 -253q-88 0 -157.5 46 t-116.5 124q-37 59 -56.5 141t-19.5 194zM70 1460h235l189 -321h-185zM254 526l240 99q29 10 41 33.5t12 70.5q0 92 -32 138t-122 46q-31 0 -56.5 -15t-45.5 -40q-10 -12 -16.5 -28.5t-11.5 -52.5t-7 -95t-2 -156z" />
<glyph unicode="&#xe9;" horiz-adv-x="735" d="M43 485q0 154 29.5 248t83.5 156q47 53 107.5 85t129.5 32q141 0 222 -72t81 -217q0 -31 -6 -54.5t-24.5 -44t-50 -39t-83.5 -40.5l-278 -123q0 -82 3 -134.5t9 -84t15.5 -50t19.5 -30.5q41 -47 92 -47q104 0 169 54t85 122l55 -13q-78 -254 -309 -253q-88 0 -157.5 46 t-116.5 124q-37 59 -56.5 141t-19.5 194zM254 526l240 99q29 10 41 33.5t12 70.5q0 92 -32 138t-122 46q-31 0 -56.5 -15t-45.5 -40q-10 -12 -16.5 -28.5t-11.5 -52.5t-7 -95t-2 -156zM261 1139l190 321h234l-238 -321h-186z" />
<glyph unicode="&#xea;" horiz-adv-x="735" d="M43 485q0 154 29.5 248t83.5 156q47 53 107.5 85t129.5 32q141 0 222 -72t81 -217q0 -31 -6 -54.5t-24.5 -44t-50 -39t-83.5 -40.5l-278 -123q0 -82 3 -134.5t9 -84t15.5 -50t19.5 -30.5q41 -47 92 -47q104 0 169 54t85 122l55 -13q-78 -254 -309 -253q-88 0 -157.5 46 t-116.5 124q-37 59 -56.5 141t-19.5 194zM67 1139l217 321h205l217 -321h-170l-149 198l-148 -198h-172zM254 526l240 99q29 10 41 33.5t12 70.5q0 92 -32 138t-122 46q-31 0 -56.5 -15t-45.5 -40q-10 -12 -16.5 -28.5t-11.5 -52.5t-7 -95t-2 -156z" />
<glyph unicode="&#xeb;" horiz-adv-x="735" d="M43 485q0 154 29.5 248t83.5 156q47 53 107.5 85t129.5 32q141 0 222 -72t81 -217q0 -31 -6 -54.5t-24.5 -44t-50 -39t-83.5 -40.5l-278 -123q0 -82 3 -134.5t9 -84t15.5 -50t19.5 -30.5q41 -47 92 -47q104 0 169 54t85 122l55 -13q-78 -254 -309 -253q-88 0 -157.5 46 t-116.5 124q-37 59 -56.5 141t-19.5 194zM80 1370q0 66 36 108t95 42t96 -42t37 -108t-37 -105.5t-96 -39.5t-95 40t-36 105zM254 526l240 99q29 10 41 33.5t12 70.5q0 92 -32 138t-122 46q-31 0 -56.5 -15t-45.5 -40q-10 -12 -16.5 -28.5t-11.5 -52.5t-7 -95t-2 -156z M440 1370q0 66 37 108t97 42q59 0 95 -42t36 -108t-36 -105.5t-95 -39.5t-96.5 40t-37.5 105z" />
<glyph unicode="&#xec;" horiz-adv-x="483" d="M-69 1460h235l189 -321h-185zM51 0v94h31q18 0 29.5 8.5t21.5 34.5q8 18 12 40t7 72t4 146.5t1 266.5q0 86 -6 133t-33 69q-10 10 -24 18.5t-31 8.5h-12v92h305q-2 -16 -4 -45t-4 -86t-3 -149.5t-1 -231.5q0 -109 1 -170t4 -97t10 -52.5t20 -32.5q20 -25 49 -25h16v-94 h-393z" />
<glyph unicode="&#xed;" horiz-adv-x="489" d="M39 0v94h31q18 0 29.5 8.5t21.5 34.5q8 18 12 40t7 72t4 146.5t1 266.5q0 86 -6 133t-33 69q-10 10 -24 18.5t-31 8.5h-12v92h305q-2 -16 -4 -45t-4 -86t-3 -149.5t-1 -231.5q0 -109 1 -170t4 -97t10 -52.5t20 -32.5q20 -25 49 -25h16v-94h-393zM109 1139l190 321h234 l-238 -321h-186z" />
<glyph unicode="&#xee;" horiz-adv-x="589" d="M-25 1139l217 321h205l217 -321h-170l-149 198l-148 -198h-172zM96 0v94h31q18 0 29.5 8.5t21.5 34.5q8 18 12 40t7 72t4 146.5t1 266.5q0 86 -6 133t-33 69q-10 10 -24 18.5t-31 8.5h-12v92h305q-2 -16 -4 -45t-4 -86t-3 -149.5t-1 -231.5q0 -109 1 -170t4 -97t10 -52.5 t20 -32.5q20 -25 49 -25h16v-94h-393z" />
<glyph unicode="&#xef;" horiz-adv-x="595" d="M-16 1370q0 66 36 108t95 42t96 -42t37 -108t-37 -105.5t-96 -39.5t-95 40t-36 105zM96 0v94h31q18 0 29.5 8.5t21.5 34.5q8 18 12 40t7 72t4 146.5t1 266.5q0 86 -6 133t-33 69q-10 10 -24 18.5t-31 8.5h-12v92h305q-2 -16 -4 -45t-4 -86t-3 -149.5t-1 -231.5 q0 -109 1 -170t4 -97t10 -52.5t20 -32.5q20 -25 49 -25h16v-94h-393zM344 1370q0 66 37 108t97 42q59 0 95 -42t36 -108t-36 -105.5t-95 -39.5t-96.5 40t-37.5 105z" />
<glyph unicode="&#xf0;" horiz-adv-x="802" d="M43 483q0 94 9 162t25.5 118t40 86t54.5 64q45 43 101.5 68t119.5 25q74 0 135 -31q-6 100 -23.5 176t-43.5 133l-260 -213l-49 66l268 219q-41 57 -94.5 100t-124.5 84l24 59q86 -29 158 -68.5t131 -96.5l119 98l49 -66l-115 -94q66 -88 102 -194.5t53 -222t20 -236.5 t3 -240q0 -84 -8 -145.5t-23.5 -107.5t-38 -80.5t-48.5 -63.5q-47 -51 -106.5 -76.5t-127.5 -25.5q-72 0 -133 28.5t-108 81.5q-25 29 -45.5 60.5t-35 76.5t-21.5 106.5t-7 149.5zM254 483q0 -109 3 -175t8 -105t12.5 -56.5t17.5 -29.5q18 -23 44 -35t54 -12q61 0 96 45 q10 12 17.5 29.5t12.5 56.5t8 105.5t3 176.5q0 117 -2 187.5t-7 110.5t-12 58.5t-17 28.5q-38 45 -99 45t-98 -45q-10 -10 -17.5 -27.5t-12.5 -57.5t-8 -111.5t-3 -188.5z" />
<glyph unicode="&#xf1;" horiz-adv-x="927" d="M31 0v94h30q41 0 56 41q4 12 7 28.5t4 59.5t2 127t1 236v133t-2 79.5t-5 42t-9 19.5q-12 12 -25.5 21.5t-38.5 9.5h-20v92h55q41 0 67.5 -5t45 -17.5t32 -31t27.5 -42.5q41 57 99.5 88t160.5 31q86 0 144.5 -29t94.5 -74t51 -99t15 -104q0 -199 2 -311.5t4 -170.5 t5.5 -76.5t5.5 -24.5q8 -23 53 -23h22v-94h-393v94h29q39 0 49 17q6 6 10 19t7.5 55t5.5 121t2 218q0 98 -2 154.5t-7.5 89.5t-14.5 49.5t-23 34.5q-35 43 -103 43q-37 0 -61.5 -14.5t-40.5 -34.5q-12 -16 -21.5 -39t-14.5 -59.5t-7 -93t-2 -140.5v-204.5t1 -111.5t2 -50.5 t5 -20.5q6 -16 20.5 -24.5t49.5 -8.5h20v-94h-395zM146 1298q35 49 92 87t106 38q37 0 68 -15t59.5 -33.5t56 -34t58.5 -15.5q41 0 84 29.5t74 64.5l36 -129q-12 -20 -34.5 -37.5t-47 -31t-50 -21.5t-46.5 -8q-37 0 -69.5 15.5t-63.5 34t-59.5 33.5t-59.5 15 q-43 0 -88 -34.5t-80 -84.5z" />
<glyph unicode="&#xf2;" d="M43 483q0 94 9 162t25.5 118t40 86t54.5 64q45 43 101.5 68t119.5 25q61 0 115.5 -21.5t99.5 -62.5q31 -29 56.5 -62t44 -82t27.5 -120.5t9 -178.5q0 -84 -8 -145.5t-23.5 -107.5t-38 -80.5t-48.5 -63.5q-47 -51 -106.5 -76.5t-127.5 -25.5q-72 0 -133 28.5t-108 81.5 q-25 29 -45.5 60.5t-35 76.5t-21.5 106.5t-7 149.5zM74 1460h235l189 -321h-185zM254 483q0 -109 3 -175t8 -105t12.5 -56.5t17.5 -29.5q18 -23 44 -35t54 -12q61 0 96 45q10 12 17.5 29.5t12.5 56.5t8 105.5t3 176.5q0 117 -3 187.5t-7 110.5t-12 58.5t-16 28.5 q-40 45 -99 45t-98 -45q-10 -10 -17.5 -27.5t-12.5 -57.5t-8 -111.5t-3 -188.5z" />
<glyph unicode="&#xf3;" d="M43 483q0 94 9 162t25.5 118t40 86t54.5 64q45 43 101.5 68t119.5 25q61 0 115.5 -21.5t99.5 -62.5q31 -29 56.5 -62t44 -82t27.5 -120.5t9 -178.5q0 -84 -8 -145.5t-23.5 -107.5t-38 -80.5t-48.5 -63.5q-47 -51 -106.5 -76.5t-127.5 -25.5q-72 0 -133 28.5t-108 81.5 q-25 29 -45.5 60.5t-35 76.5t-21.5 106.5t-7 149.5zM254 483q0 -109 3 -175t8 -105t12.5 -56.5t17.5 -29.5q18 -23 44 -35t54 -12q61 0 96 45q10 12 17.5 29.5t12.5 56.5t8 105.5t3 176.5q0 117 -3 187.5t-7 110.5t-12 58.5t-16 28.5q-40 45 -99 45t-98 -45 q-10 -10 -17.5 -27.5t-12.5 -57.5t-8 -111.5t-3 -188.5zM267 1139l190 321h234l-238 -321h-186z" />
<glyph unicode="&#xf4;" d="M43 483q0 94 9 162t25.5 118t40 86t54.5 64q45 43 101.5 68t119.5 25q61 0 115.5 -21.5t99.5 -62.5q31 -29 56.5 -62t44 -82t27.5 -120.5t9 -178.5q0 -84 -8 -145.5t-23.5 -107.5t-38 -80.5t-48.5 -63.5q-47 -51 -106.5 -76.5t-127.5 -25.5q-72 0 -133 28.5t-108 81.5 q-25 29 -45.5 60.5t-35 76.5t-21.5 106.5t-7 149.5zM73 1139l217 321h205l217 -321h-170l-149 198l-148 -198h-172zM254 483q0 -109 3 -175t8 -105t12.5 -56.5t17.5 -29.5q18 -23 44 -35t54 -12q61 0 96 45q10 12 17.5 29.5t12.5 56.5t8 105.5t3 176.5q0 117 -3 187.5 t-7 110.5t-12 58.5t-16 28.5q-40 45 -99 45t-98 -45q-10 -10 -17.5 -27.5t-12.5 -57.5t-8 -111.5t-3 -188.5z" />
<glyph unicode="&#xf5;" d="M43 483q0 94 9 162t25.5 118t40 86t54.5 64q45 43 101.5 68t119.5 25q61 0 115.5 -21.5t99.5 -62.5q31 -29 56.5 -62t44 -82t27.5 -120.5t9 -178.5q0 -84 -8 -145.5t-23.5 -107.5t-38 -80.5t-48.5 -63.5q-47 -51 -106.5 -76.5t-127.5 -25.5q-72 0 -133 28.5t-108 81.5 q-25 29 -45.5 60.5t-35 76.5t-21.5 106.5t-7 149.5zM76 1298q35 49 92 87t106 38q37 0 68 -15t59.5 -33.5t56 -34t58.5 -15.5q41 0 84 29.5t74 64.5l36 -129q-12 -20 -34.5 -37.5t-47 -31t-50 -21.5t-46.5 -8q-37 0 -69.5 15.5t-63.5 34t-59.5 33.5t-59.5 15 q-43 0 -88 -34.5t-80 -84.5zM254 483q0 -109 3 -175t8 -105t12.5 -56.5t17.5 -29.5q18 -23 44 -35t54 -12q61 0 96 45q10 12 17.5 29.5t12.5 56.5t8 105.5t3 176.5q0 117 -3 187.5t-7 110.5t-12 58.5t-16 28.5q-40 45 -99 45t-98 -45q-10 -10 -17.5 -27.5t-12.5 -57.5 t-8 -111.5t-3 -188.5z" />
<glyph unicode="&#xf6;" d="M43 483q0 94 9 162t25.5 118t40 86t54.5 64q45 43 101.5 68t119.5 25q61 0 115.5 -21.5t99.5 -62.5q31 -29 56.5 -62t44 -82t27.5 -120.5t9 -178.5q0 -84 -8 -145.5t-23.5 -107.5t-38 -80.5t-48.5 -63.5q-47 -51 -106.5 -76.5t-127.5 -25.5q-72 0 -133 28.5t-108 81.5 q-25 29 -45.5 60.5t-35 76.5t-21.5 106.5t-7 149.5zM84 1370q0 66 36 108t95 42t96 -42t37 -108t-37 -105.5t-96 -39.5t-95 40t-36 105zM254 483q0 -109 3 -175t8 -105t12.5 -56.5t17.5 -29.5q18 -23 44 -35t54 -12q61 0 96 45q10 12 17.5 29.5t12.5 56.5t8 105.5t3 176.5 q0 117 -3 187.5t-7 110.5t-12 58.5t-16 28.5q-40 45 -99 45t-98 -45q-10 -10 -17.5 -27.5t-12.5 -57.5t-8 -111.5t-3 -188.5zM444 1370q0 66 37 108t97 42q59 0 95 -42t36 -108t-36 -105.5t-95 -39.5t-96.5 40t-37.5 105z" />
<glyph unicode="&#xf7;" horiz-adv-x="872" d="M33 680v119h807v-119h-807zM303 311q0 68 37 112t96 44q61 0 98 -44t37 -112q0 -70 -37 -112.5t-98 -42.5q-59 0 -96 43t-37 112zM303 1167q0 68 37 112t96 44q61 0 98 -44t37 -112q0 -70 -37 -112.5t-98 -42.5q-59 0 -96 43t-37 112z" />
<glyph unicode="&#xf8;" d="M-8 -182q35 57 72.5 128.5t74.5 157.5q-25 27 -42 59t-29.5 76t-18.5 103t-6 141q0 94 9 162t25.5 118t40 86t54.5 64q45 43 101.5 68t119.5 25q70 0 135 -31q29 66 48.5 122t29.5 103h193q-45 -80 -84 -156.5t-74 -152.5q25 -27 43 -59.5t32.5 -81t21.5 -114t7 -157.5 q0 -84 -8 -145.5t-23.5 -107.5t-38 -80.5t-48.5 -63.5q-47 -51 -106.5 -76.5t-127.5 -25.5q-39 0 -73.5 8t-67.5 22q-41 -88 -70 -192h-190zM254 348q63 135 123.5 268.5t109.5 255.5q-35 41 -94 41q-61 0 -98 -45q-8 -10 -15.5 -25.5t-13.5 -53t-9 -107.5t-3 -186v-148z M291 117q43 -47 102 -47q61 0 96 45q10 12 17.5 29.5t12.5 56.5t8 105.5t3 176.5v174q-70 -143 -129 -278t-110 -262z" />
<glyph unicode="&#xf9;" horiz-adv-x="862" d="M16 891v92h398v-92h-31q-29 0 -47 -21q-8 -8 -12.5 -20t-7.5 -48t-4 -102.5t-1 -185.5q0 -106 2 -170.5t5.5 -102.5t8.5 -57.5t13 -36.5q20 -41 47 -56t74 -15q41 0 68.5 16.5t48.5 54.5q8 16 13 36t8 56.5t4 97t1 163.5q0 106 -1 170.5t-2 103.5t-4 56.5t-7 27.5 q-10 33 -66 33h-16v92h344v-92h-25q-39 0 -53 -27q-6 -8 -9 -22.5t-4 -55.5t-2 -117.5t-1 -209.5q0 -86 -3 -144.5t-8.5 -98.5t-14.5 -66.5t-21 -47.5q-72 -123 -254 -122q-92 0 -164 24.5t-117 77.5q-18 20 -30.5 49t-19.5 75t-11 113.5t-4 165.5q0 125 -1 199t-2.5 113 t-4.5 52t-7 19q-8 12 -24.5 17.5t-55.5 5.5zM134 1460h235l189 -321h-185z" />
<glyph unicode="&#xfa;" horiz-adv-x="862" d="M16 891v92h398v-92h-31q-29 0 -47 -21q-8 -8 -12.5 -20t-7.5 -48t-4 -102.5t-1 -185.5q0 -106 2 -170.5t5.5 -102.5t8.5 -57.5t13 -36.5q20 -41 47 -56t74 -15q41 0 68.5 16.5t48.5 54.5q8 16 13 36t8 56.5t4 97t1 163.5q0 106 -1 170.5t-2 103.5t-4 56.5t-7 27.5 q-10 33 -66 33h-16v92h344v-92h-25q-39 0 -53 -27q-6 -8 -9 -22.5t-4 -55.5t-2 -117.5t-1 -209.5q0 -86 -3 -144.5t-8.5 -98.5t-14.5 -66.5t-21 -47.5q-72 -123 -254 -122q-92 0 -164 24.5t-117 77.5q-18 20 -30.5 49t-19.5 75t-11 113.5t-4 165.5q0 125 -1 199t-2.5 113 t-4.5 52t-7 19q-8 12 -24.5 17.5t-55.5 5.5zM326 1139l190 321h234l-238 -321h-186z" />
<glyph unicode="&#xfb;" horiz-adv-x="862" d="M16 891v92h398v-92h-31q-29 0 -47 -21q-8 -8 -12.5 -20t-7.5 -48t-4 -102.5t-1 -185.5q0 -106 2 -170.5t5.5 -102.5t8.5 -57.5t13 -36.5q20 -41 47 -56t74 -15q41 0 68.5 16.5t48.5 54.5q8 16 13 36t8 56.5t4 97t1 163.5q0 106 -1 170.5t-2 103.5t-4 56.5t-7 27.5 q-10 33 -66 33h-16v92h344v-92h-25q-39 0 -53 -27q-6 -8 -9 -22.5t-4 -55.5t-2 -117.5t-1 -209.5q0 -86 -3 -144.5t-8.5 -98.5t-14.5 -66.5t-21 -47.5q-72 -123 -254 -122q-92 0 -164 24.5t-117 77.5q-18 20 -30.5 49t-19.5 75t-11 113.5t-4 165.5q0 125 -1 199t-2.5 113 t-4.5 52t-7 19q-8 12 -24.5 17.5t-55.5 5.5zM131 1139l217 321h205l217 -321h-170l-149 198l-148 -198h-172z" />
<glyph unicode="&#xfc;" horiz-adv-x="862" d="M16 891v92h398v-92h-31q-29 0 -47 -21q-8 -8 -12.5 -20t-7.5 -48t-4 -102.5t-1 -185.5q0 -106 2 -170.5t5.5 -102.5t8.5 -57.5t13 -36.5q20 -41 47 -56t74 -15q41 0 68.5 16.5t48.5 54.5q8 16 13 36t8 56.5t4 97t1 163.5q0 106 -1 170.5t-2 103.5t-4 56.5t-7 27.5 q-10 33 -66 33h-16v92h344v-92h-25q-39 0 -53 -27q-6 -8 -9 -22.5t-4 -55.5t-2 -117.5t-1 -209.5q0 -86 -3 -144.5t-8.5 -98.5t-14.5 -66.5t-21 -47.5q-72 -123 -254 -122q-92 0 -164 24.5t-117 77.5q-18 20 -30.5 49t-19.5 75t-11 113.5t-4 165.5q0 125 -1 199t-2.5 113 t-4.5 52t-7 19q-8 12 -24.5 17.5t-55.5 5.5zM139 1370q0 66 36 108t95 42t96 -42t37 -108t-37 -105.5t-96 -39.5t-95 40t-36 105zM499 1370q0 66 37 108t97 42q59 0 95 -42t36 -108t-36 -105.5t-95 -39.5t-96.5 40t-37.5 105z" />
<glyph unicode="&#xfd;" horiz-adv-x="811" d="M-43 -219q0 72 36 115t95 43q55 0 88 -35t33 -101q0 -57 -32 -91t-89 -34q0 -33 27.5 -48t52.5 -15q70 0 108 59q14 20 24.5 41t21 52.5t22.5 83t33 133.5q-6 23 -25.5 88t-45 152t-55.5 185.5t-55.5 184.5t-46 150.5t-28.5 84.5q-12 35 -24.5 48.5t-41.5 13.5h-24v92 h397v-92h-37q-55 0 -55 -45q0 -23 9 -76t26.5 -130t44 -173t61.5 -207q27 100 49.5 194.5t40 170t26.5 130t11 79.5q2 29 -8 43t-47 14h-31v92h270v-92h-12q-53 0 -71 -62q-6 -20 -21.5 -80.5t-35 -141.5t-42 -174t-44 -180t-41 -162t-29.5 -116q-25 -109 -52.5 -192.5 t-62.5 -141t-82 -87t-115 -29.5q-63 0 -106 20.5t-68.5 56.5t-37 82t-11.5 97zM322 1139l190 321h234l-238 -321h-186z" />
<glyph unicode="&#xfe;" horiz-adv-x="851" d="M12 -383q33 0 52.5 5t29.5 17.5t14.5 35t4.5 57.5q0 31 -1 66.5t-1 84.5v152.5v202t1 221t1 209v167v95.5q0 352 -7 491q-4 23 -8 35t-14 18.5t-26.5 7.5t-45.5 1v94h305q-2 -47 -2 -102.5v-118.5q0 -96 1 -199.5t6 -200.5q33 20 66.5 31.5t68.5 11.5q74 0 137 -35.5 t111.5 -96t75 -139.5t26.5 -165v-145q0 -88 -27.5 -168t-76 -139.5t-112 -95t-134.5 -35.5q-90 0 -150 83q-2 -72 -2 -115.5v-84.5q0 -90 5 -140.5t17.5 -74t32 -27.5t48.5 -4v-92h-396v92zM315 303q0 -127 41 -180t101 -53q29 0 53.5 14t42.5 38.5t29.5 56.5t11.5 65v491 q0 33 -10.5 63.5t-27.5 55.5t-42.5 40t-56.5 15t-57.5 -15t-45 -40t-29 -55.5t-10.5 -63.5v-432z" />
<glyph unicode="&#xff;" horiz-adv-x="811" d="M-43 -219q0 72 36 115t95 43q55 0 88 -35t33 -101q0 -57 -32 -91t-89 -34q0 -33 27.5 -48t52.5 -15q70 0 108 59q14 20 24.5 41t21 52.5t22.5 83t33 133.5q-6 23 -25.5 88t-45 152t-55.5 185.5t-55.5 184.5t-46 150.5t-28.5 84.5q-12 35 -24.5 48.5t-41.5 13.5h-24v92 h397v-92h-37q-55 0 -55 -45q0 -23 9 -76t26.5 -130t44 -173t61.5 -207q27 100 49.5 194.5t40 170t26.5 130t11 79.5q2 29 -8 43t-47 14h-31v92h270v-92h-12q-53 0 -71 -62q-6 -20 -21.5 -80.5t-35 -141.5t-42 -174t-44 -180t-41 -162t-29.5 -116q-25 -109 -52.5 -192.5 t-62.5 -141t-82 -87t-115 -29.5q-63 0 -106 20.5t-68.5 56.5t-37 82t-11.5 97zM92 1370q0 66 36 108t95 42t96 -42t37 -108t-37 -105.5t-96 -39.5t-95 40t-36 105zM452 1370q0 66 37 108t97 42q59 0 95 -42t36 -108t-36 -105.5t-95 -39.5t-96.5 40t-37.5 105z" />
<glyph unicode="&#x152;" horiz-adv-x="1607" d="M51 530q0 217 8.5 364.5t26.5 248t48 162t73 104.5q55 59 136 91t192 32q86 0 159 -23h629v-213h-88q0 121 -57 121h-146q-47 0 -62.5 -9t-19.5 -54q-4 -51 -8 -195.5t-6 -394.5h141q72 0 72 121h86v-336h-86q0 125 -72 125h-143v-191q0 -279 3 -452.5t13 -243.5 q4 -25 22.5 -34t59.5 -9h418q29 0 43 26.5t14 86.5h86v-234h-868q-37 -10 -78 -17t-86 -7q-127 0 -217 32.5t-149 92.5q-37 37 -65 89t-45 141t-25.5 227t-8.5 349zM264 530q0 -225 4 -360t12.5 -212t20.5 -109.5t29 -53.5q37 -47 90 -74.5t123 -27.5q63 0 114.5 24.5 t87.5 69.5q4 98 5.5 223t1.5 279v354.5v251.5t-1 173t-2 117t-3.5 84t-4.5 77q-35 45 -84 69.5t-114 24.5q-137 0 -211 -109q-16 -25 -29.5 -62.5t-22 -121.5t-12.5 -230.5t-4 -386.5z" />
<glyph unicode="&#x153;" horiz-adv-x="1196" d="M43 483q0 94 9 162t25.5 118t40 86t54.5 64q45 43 101.5 68t119.5 25t131 -27t107 -78q45 47 102.5 76t122.5 29q141 0 222 -72t81 -217q0 -31 -7 -54.5t-25.5 -44t-50.5 -39t-81 -40.5l-280 -123q0 -82 4 -134.5t10 -84t14.5 -50t18.5 -30.5q43 -47 94 -47 q104 0 167.5 54t86.5 122l55 -13q-78 -254 -309 -253q-70 0 -126 27.5t-101 76.5l-2 -2q-47 -51 -106.5 -76.5t-127.5 -25.5q-72 0 -133 28.5t-108 81.5q-25 29 -45.5 60.5t-35 76.5t-21.5 106.5t-7 149.5zM254 483q0 -109 3 -175t8 -105t12.5 -56.5t17.5 -29.5 q18 -23 44 -35t54 -12q66 0 102.5 34.5t55.5 100.5q-23 53 -35 122.5t-12 157.5q0 98 11 169t34 126q-12 57 -43 95t-113 38q-61 0 -98 -45q-10 -10 -17.5 -27.5t-12.5 -57.5t-8 -111.5t-3 -188.5zM715 526l241 99q29 10 41.5 33.5t12.5 70.5q0 92 -33 138t-121 46 q-33 0 -57.5 -15t-44.5 -40q-10 -12 -17.5 -28.5t-11.5 -52.5t-7 -95t-3 -156z" />
<glyph unicode="&#x178;" horiz-adv-x="1058" d="M14 1417v92h426v-92h-37q-59 0 -59 -39q0 -29 61.5 -188.5t180.5 -476.5q119 315 175 476t56 189q0 16 -10 27.5t-33 11.5h-47v92h317v-92h-16q-25 0 -40 -12t-38 -62q-35 -72 -75.5 -167t-83.5 -201.5t-87.5 -215t-82.5 -204.5v-254t-1.5 -196t-1.5 -148v-113 q0 -82 18.5 -104.5t68.5 -22.5h36v-94h-440v94h55q14 0 25.5 5.5t20 19.5t13.5 41t9 72q2 43 4 103t4 144t3 194t3 249q-29 82 -61.5 169t-73.5 185t-89 210t-108 245q-16 37 -30.5 50t-40.5 13h-21zM215 1767q0 66 36 108t95 42t96 -42t37 -108t-37 -105.5t-96 -39.5 t-95 40t-36 105zM575 1767q0 66 37 108t97 42q59 0 95 -42t36 -108t-36 -105.5t-95 -39.5t-96.5 40t-37.5 105z" />
<glyph unicode="&#x2c6;" horiz-adv-x="673" d="M16 1139l217 321h205l217 -321h-170l-149 198l-148 -198h-172z" />
<glyph unicode="&#x2dc;" horiz-adv-x="688" d="M25 1298q35 49 92 87t106 38q37 0 68 -15t59.5 -33.5t56 -34t58.5 -15.5q41 0 84 29.5t74 64.5l36 -129q-12 -20 -34.5 -37.5t-47 -31t-50 -21.5t-46.5 -8q-37 0 -69.5 15.5t-63.5 34t-59.5 33.5t-59.5 15q-43 0 -88 -34.5t-80 -84.5z" />
<glyph unicode="&#x2000;" horiz-adv-x="991" />
<glyph unicode="&#x2001;" horiz-adv-x="1983" />
<glyph unicode="&#x2002;" horiz-adv-x="991" />
<glyph unicode="&#x2003;" horiz-adv-x="1983" />
<glyph unicode="&#x2004;" horiz-adv-x="661" />
<glyph unicode="&#x2005;" horiz-adv-x="495" />
<glyph unicode="&#x2006;" horiz-adv-x="330" />
<glyph unicode="&#x2007;" horiz-adv-x="330" />
<glyph unicode="&#x2008;" horiz-adv-x="247" />
<glyph unicode="&#x2009;" horiz-adv-x="396" />
<glyph unicode="&#x200a;" horiz-adv-x="110" />
<glyph unicode="&#x2010;" horiz-adv-x="528" d="M37 539v168q70 -8 131 -13.5t121 -5.5q98 0 200 19v-168q-104 12 -210 12q-123 0 -242 -12z" />
<glyph unicode="&#x2011;" horiz-adv-x="528" d="M37 539v168q70 -8 131 -13.5t121 -5.5q98 0 200 19v-168q-104 12 -210 12q-123 0 -242 -12z" />
<glyph unicode="&#x2012;" horiz-adv-x="528" d="M37 539v168q70 -8 131 -13.5t121 -5.5q98 0 200 19v-168q-104 12 -210 12q-123 0 -242 -12z" />
<glyph unicode="&#x2013;" horiz-adv-x="808" d="M37 539v168q115 -8 213 -13.5t194 -5.5q86 0 164 4t162 15v-168q-172 12 -342 12q-199 0 -391 -12z" />
<glyph unicode="&#x2014;" horiz-adv-x="1425" d="M37 539v168q207 -8 389 -13.5t362 -5.5q154 0 299.5 4t298.5 15v-168q-319 12 -630 12q-186 0 -362.5 -3t-356.5 -9z" />
<glyph unicode="&#x2018;" horiz-adv-x="442" d="M86 1337q0 119 56.5 199t140.5 100l16 -43q-57 -27 -80.5 -58.5t-34.5 -64.5q20 10 41 11q59 0 94 -41t35 -119q0 -59 -37.5 -102t-97.5 -43q-59 0 -96 42.5t-37 118.5z" />
<glyph unicode="&#x2019;" horiz-adv-x="442" d="M86 1452q0 59 37 102t96 43t97 -42.5t38 -118.5q0 -119 -57 -199t-141 -100l-15 43q55 27 80 58.5t33 64.5q-16 -10 -41 -11q-57 0 -92 41t-35 119z" />
<glyph unicode="&#x201a;" horiz-adv-x="442" d="M86 150q0 59 37 102t96 43t97 -44t38 -120q0 -117 -57 -197.5t-141 -99.5l-15 43q55 25 80 56.5t33 66.5q-16 -10 -41 -10q-57 0 -92 41t-35 119z" />
<glyph unicode="&#x201c;" horiz-adv-x="800" d="M86 1337q0 119 56.5 199t140.5 100l16 -43q-57 -27 -80.5 -58.5t-34.5 -64.5q20 10 41 11q59 0 94 -41t35 -119q0 -59 -37.5 -102t-97.5 -43q-59 0 -96 42.5t-37 118.5zM444 1337q0 119 56.5 199t140.5 100l16 -43q-57 -27 -80.5 -58.5t-34.5 -64.5q20 10 41 11 q59 0 94 -41t35 -119q0 -59 -37.5 -102t-97.5 -43q-59 0 -96 42.5t-37 118.5z" />
<glyph unicode="&#x201d;" horiz-adv-x="800" d="M86 1452q0 59 37 102t96 43t97 -42.5t38 -118.5q0 -119 -57 -199t-141 -100l-15 43q55 27 80 58.5t33 64.5q-16 -10 -41 -11q-57 0 -92 41t-35 119zM444 1452q0 59 37 102t96 43t97 -42.5t38 -118.5q0 -119 -57 -199t-141 -100l-15 43q55 27 80 58.5t33 64.5 q-16 -10 -41 -11q-57 0 -92 41t-35 119z" />
<glyph unicode="&#x201e;" horiz-adv-x="800" d="M86 150q0 59 37 102t96 43t97 -44t38 -120q0 -117 -57 -197.5t-141 -99.5l-15 43q55 25 80 56.5t33 66.5q-16 -10 -41 -10q-57 0 -92 41t-35 119zM444 150q0 59 37 102t96 43t97 -44t38 -120q0 -117 -57 -197.5t-141 -99.5l-15 43q55 25 80 56.5t33 66.5q-16 -10 -41 -10 q-57 0 -92 41t-35 119z" />
<glyph unicode="&#x2022;" horiz-adv-x="651" d="M98 762q0 47 17.5 89t48.5 72.5t71.5 49t88.5 18.5q47 0 88 -18.5t71.5 -49t49 -72.5t18.5 -89t-18.5 -88t-49 -72t-71.5 -48t-88 -17t-88 17t-72 48t-48.5 72t-17.5 88z" />
<glyph unicode="&#x2026;" horiz-adv-x="1728" d="M100 139q0 68 37 112t96 44q61 0 98 -44t37 -112q0 -70 -37 -112.5t-98 -42.5q-59 0 -96 43t-37 112zM731 139q0 68 37 112t96 44q61 0 98 -44t37 -112q0 -70 -37 -112.5t-98 -42.5q-59 0 -96 43t-37 112zM1362 139q0 68 37 112t96 44q61 0 98 -44t37 -112 q0 -70 -37 -112.5t-98 -42.5q-59 0 -96 43t-37 112z" />
<glyph unicode="&#x202f;" horiz-adv-x="396" />
<glyph unicode="&#x2039;" horiz-adv-x="391" d="M35 588v205l321 217v-170l-241 -150l241 -139v-180z" />
<glyph unicode="&#x203a;" horiz-adv-x="391" d="M35 371v180l239 139l-239 150v170l321 -217v-205z" />
<glyph unicode="&#x205f;" horiz-adv-x="495" />
<glyph unicode="&#x20ac;" horiz-adv-x="991" d="M8 539l23 88h96q0 12 -1 25.5t-1 35v53v80.5h-117l23 88h98q10 166 34.5 264.5t69.5 167.5q59 88 151.5 139.5t225.5 51.5q80 0 144.5 -21.5t108.5 -59.5t68.5 -88t24.5 -108q0 -59 -36.5 -108t-96.5 -49q-57 0 -92 33.5t-35 103.5q0 59 20.5 91t71.5 54q-53 59 -170 60 q-123 0 -196 -90q-18 -23 -31.5 -51.5t-24 -76.5t-17.5 -124t-9 -189h467l-21 -88h-448v-194h389l-25 -88h-362q2 -94 6 -154.5t11.5 -98.5t16.5 -59.5t19 -36.5q37 -55 94.5 -86.5t130.5 -31.5q98 0 163 43t87 121l66 -11q-88 -246 -318 -245q-102 0 -178 25.5t-133 72.5 q-74 59 -118 162.5t-58 298.5h-121z" />
<glyph unicode="&#x2122;" horiz-adv-x="1501" d="M39 1386v123h569v-123h-61q0 29 -11.5 40.5t-52.5 11.5h-55q-35 0 -39 -15q-2 -6 -4 -33.5t-3 -67.5t-1 -85v-82q0 -45 1 -101.5t2 -105.5t2 -85t3 -40q4 -14 39 -14h37v-66h-295v66h39q16 0 23.5 2t13.5 12q2 6 4 47t3 96.5t1 115v100.5v77.5t-1 75.5t-3 58.5t-4 29.5 q-6 10 -13.5 12.5t-23.5 2.5h-74q-39 0 -39 -52h-57zM672 743v68h12q16 0 30.5 1t16.5 5q2 6 5 12.5t5 31t3 75.5t1 147v166q0 98 -5 134t-11 47q-6 8 -15 11t-32 3h-10v65h217q8 -37 25.5 -107.5t40 -154.5t49 -174t51.5 -170q20 49 42.5 105.5t46 127t51.5 162t62 211.5 h181v-65h-13q-35 0 -47 -21q-6 -12 -9 -25.5t-4 -41t-2 -74.5t-1 -125q0 -90 1 -146.5t2 -91t3 -53t6 -32.5q4 -16 15.5 -20.5t33.5 -4.5h15v-66h-264v66h12q29 0 39 4t12 21q2 33 3 63.5t3 69.5t3 88t1 119q0 47 -1 62t-1 26q-53 -154 -93 -282t-73 -237h-112 q-6 29 -27.5 99.5t-48.5 151.5t-51.5 155t-38.5 111q0 -18 -1 -37t-1 -37q0 -23 1 -75t3 -108.5t4 -106.5t2 -65q2 -16 14.5 -19t34.5 -3h16v-66h-202z" />
<glyph unicode="&#xe000;" horiz-adv-x="983" d="M0 0v983h983v-983h-983z" />
<glyph unicode="&#xfb01;" horiz-adv-x="1095" d="M18 891v92h123v180q0 131 21.5 216t58.5 134.5t89.5 67.5t113.5 18q43 0 88 -15t81 -51t58.5 -92.5t22.5 -137.5q0 -57 -34 -98.5t-91 -41.5t-93 43t-36 103q0 109 96 143q-4 29 -26.5 44t-53.5 15q-33 0 -56.5 -16t-37.5 -56t-20.5 -107.5t-6.5 -172.5v-176h158v-92 h-160v-176q0 -168 1 -269.5t4.5 -159t6.5 -84t7 -46.5q8 -39 23.5 -50.5t66.5 -11.5h29v-94h-422v94h30q23 0 33 10.5t21 38.5q8 27 14 55.5t9 88t4 161t1 273.5v170h-123zM664 0v94h31q18 0 29.5 8.5t21.5 34.5q8 18 12 40t7 72t4 146.5t1 266.5q0 86 -6 133t-33 69 q-10 10 -24 18.5t-31 8.5h-12v92h305q-2 -16 -4 -45t-4 -86t-3 -149.5t-1 -231.5q0 -109 1 -170t4 -97t10 -52.5t20 -32.5q20 -25 49 -25h16v-94h-393zM721 1370q0 66 36 108t95 42t96 -42t37 -108t-37 -105.5t-96 -39.5t-95 40t-36 105z" />
<glyph unicode="&#xfb02;" horiz-adv-x="1124" d="M18 891v92h123v180q0 131 21.5 216t58.5 134.5t89.5 67.5t113.5 18q43 0 88 -15t81 -51t58.5 -92.5t22.5 -137.5q0 -57 -34 -98.5t-91 -41.5t-93 43t-36 103q0 109 96 143q-4 29 -26.5 44t-53.5 15q-33 0 -56.5 -16t-37.5 -56t-20.5 -107.5t-6.5 -172.5v-176h158v-92 h-160v-176q0 -168 1 -269.5t4.5 -159t6.5 -84t7 -46.5q8 -39 23.5 -50.5t66.5 -11.5h29v-94h-422v94h30q23 0 33 10.5t21 38.5q8 27 14 55.5t9 88t4 161t1 273.5v170h-123zM690 0v94h33q14 0 24 7.5t19 33.5q8 27 14 62.5t9 113.5t5 213t2 359v251t-2 150t-4 84t-8 53 q-8 41 -18.5 53.5t-49.5 12.5h-24v90h303q0 -53 -2 -106.5t-4 -129t-3 -186.5t-1 -283q0 -238 1 -375t2 -209.5t3 -97t4 -34.5q6 -35 17.5 -48.5t43.5 -13.5h31v-94h-395z" />
</font>
</defs>
</svg>
